<?xml version="1.0" encoding="UTF-8"?>
<svg version="1.1" xmlns="http://www.w3.org/2000/svg" width="500" height="500">
<path d="M0 0 C2.27060005 0.05287296 4.54152047 0.09225673 6.8125 0.125 C21.99407474 0.85809226 32.43482656 10.92452818 42.31640625 21.47265625 C51.62399633 32.33445492 57.27339755 46.25845286 57.3984375 60.5546875 C56.92825278 63.44033096 55.80200687 64.74990052 54 67 C54.1957792 69.40144267 54.1957792 69.40144267 55 72 C57.34775178 81.97794507 52.64335375 90.37400686 48 99 C47.34 99 46.68 99 46 99 C45.75121094 99.72574219 45.50242187 100.45148438 45.24609375 101.19921875 C39.19339494 114.80356058 23.17265662 123.49278763 10 129 C-3.84659047 133.33696538 -21.82963207 132.88829433 -34.92578125 126.59375 C-48.13446463 119.32983074 -62.72695904 109.1046014 -69 95 C-69 94.34 -69 93.68 -69 93 C-69.68707031 92.96261719 -70.37414062 92.92523438 -71.08203125 92.88671875 C-71.98308594 92.82097656 -72.88414062 92.75523437 -73.8125 92.6875 C-74.70582031 92.62949219 -75.59914063 92.57148438 -76.51953125 92.51171875 C-79.43685222 91.90987773 -80.20945383 91.34012926 -82 89 C-83.45195526 80.11778448 -81.3226541 70.30947455 -80.02856445 61.47070312 C-79.68529486 59.10983391 -79.36250325 56.7467352 -79.04101562 54.3828125 C-78.82413605 52.8618048 -78.60607917 51.3409644 -78.38671875 49.8203125 C-78.29283371 49.12334259 -78.19894867 48.42637268 -78.10221863 47.70828247 C-77.29632273 42.37039531 -76.12109046 37.60514953 -71.6875 34.25 C-68.98766154 31.98967013 -67.98446791 30.407213 -66.3125 27.375 C-57.80611548 12.60304324 -43.52500549 3.84926284 -27.48828125 -0.71484375 C-25.33095387 -1.23064454 -23.18873849 -1.64265494 -21 -2 C-20.27425781 -2.1340625 -19.54851562 -2.268125 -18.80078125 -2.40625 C-12.46403197 -3.37943314 -5.81363245 -2.90681622 0 0 Z " fill="#95A704" transform="translate(385,191)"/>
<path d="M0 0 C1.45181923 -0.00956978 1.45181923 -0.00956978 2.93296814 -0.01933289 C4.49864281 -0.02100212 4.49864281 -0.02100212 6.09594727 -0.02270508 C7.16982193 -0.02603348 8.24369659 -0.02936188 9.35011292 -0.03279114 C11.62223889 -0.03785587 13.8943723 -0.0401996 16.16650391 -0.04003906 C19.64506257 -0.04222546 23.12330411 -0.06038593 26.60180664 -0.0793457 C28.80818576 -0.0822797 31.01456639 -0.08426446 33.22094727 -0.08520508 C34.78358559 -0.09598335 34.78358559 -0.09598335 36.37779236 -0.10697937 C37.83433983 -0.10236443 37.83433983 -0.10236443 39.3203125 -0.09765625 C40.17286118 -0.09908127 41.02540985 -0.10050629 41.90379333 -0.10197449 C44.51014825 0.17565312 46.08207136 0.62844345 48.22485352 2.14526367 C50.34028493 8.05607906 48.99531094 15.02619981 48.08032227 21.07104492 C47.9504744 21.98105759 47.82062653 22.89107025 47.68684387 23.82865906 C47.41215751 25.73616285 47.13202877 27.64289024 46.84667969 29.54882812 C46.41124443 32.46519186 45.99550952 35.3838832 45.58227539 38.3034668 C45.31194528 40.16366095 45.04050006 42.02369346 44.76782227 43.88354492 C44.58173653 45.18827507 44.58173653 45.18827507 44.39189148 46.5193634 C44.26869034 47.33088364 44.1454892 48.14240387 44.01855469 48.97851562 C43.91339035 49.68861282 43.80822601 50.39871002 43.69987488 51.13032532 C43.17604685 53.35229105 42.31629125 55.14752169 41.22485352 57.14526367 C40.56485352 57.14526367 39.90485352 57.14526367 39.22485352 57.14526367 C39.22485352 57.80526367 39.22485352 58.46526367 39.22485352 59.14526367 C34.83919281 60.23320869 30.56902587 60.27423681 26.08032227 60.24291992 C25.31053543 60.24150497 24.5407486 60.24009003 23.74763489 60.2386322 C21.30250064 60.23305973 18.85745983 60.22051238 16.41235352 60.20776367 C14.74894338 60.20274511 13.08553181 60.19818283 11.42211914 60.1940918 C7.35632823 60.18309933 3.29060669 60.16585377 -0.77514648 60.14526367 C-0.85949951 61.37394165 -0.85949951 61.37394165 -0.94555664 62.62744141 C-1.02596191 63.70453369 -1.10636719 64.78162598 -1.18920898 65.89135742 C-1.26606934 66.95797607 -1.34292969 68.02459473 -1.42211914 69.12353516 C-1.96280178 73.75149439 -3.33517841 77.15673632 -6.08764648 80.95776367 C-12.01168101 85.12652871 -18.86351924 84.3465732 -25.77514648 84.14526367 C-25.77514648 83.15526367 -25.77514648 82.16526367 -25.77514648 81.14526367 C-24.82044212 80.24051552 -24.82044212 80.24051552 -23.84645081 79.31748962 C-21.2785722 76.62449444 -21.08084924 75.04958968 -20.63427734 71.38964844 C-20.48409653 70.23066544 -20.33391571 69.07168243 -20.17918396 67.87757874 C-20.03425003 66.62657883 -19.8893161 65.37557892 -19.73999023 64.08666992 C-19.48808202 62.10668073 -19.23616725 60.12669236 -18.98388767 58.14675045 C-18.6344719 55.37061437 -18.30071215 52.59267991 -17.96685791 49.81463623 C-17.38487763 44.9912563 -16.7826016 40.17040738 -16.17396545 35.35032654 C-15.85212934 32.78902067 -15.53772953 30.22676509 -15.23216248 27.66346741 C-12.60980449 6.48621353 -12.60980449 6.48621353 -9.36460876 2.34547424 C-6.38245588 0.09363633 -3.5930754 0.01607987 0 0 Z M6.22485352 18.14526367 C4.47015971 23.31736755 4.47015971 23.31736755 3.59204102 28.44995117 C3.5158252 29.12525879 3.43960938 29.80056641 3.36108398 30.49633789 C3.27487793 31.3292334 3.18867187 32.16212891 3.09985352 33.02026367 C2.81110352 35.70151367 2.52235352 38.38276367 2.22485352 41.14526367 C9.81485352 41.14526367 17.40485352 41.14526367 25.22485352 41.14526367 C26.69822476 37.46183555 27.48463484 35.42314906 27.85766602 31.71948242 C27.93388184 31.00107178 28.01009766 30.28266113 28.08862305 29.54248047 C28.1748291 28.64827393 28.26103516 27.75406738 28.34985352 26.83276367 C28.78297852 22.53245117 28.78297852 22.53245117 29.22485352 18.14526367 C21.63485352 18.14526367 14.04485352 18.14526367 6.22485352 18.14526367 Z " fill="#010101" transform="translate(123.775146484375,223.854736328125)"/>
<path d="M0 0 C1.63001953 0.01353516 1.63001953 0.01353516 3.29296875 0.02734375 C4.12441406 0.03894531 4.95585937 0.05054688 5.8125 0.0625 C6.81483478 3.246844 6.77438663 5.56503207 6.24609375 8.84765625 C6.09325928 9.83282227 5.9404248 10.81798828 5.78295898 11.83300781 C5.51914429 13.46254395 5.51914429 13.46254395 5.25 15.125 C4.8724526 17.53736311 4.49765603 19.95015769 4.125 22.36328125 C4.02259506 23.02415741 3.92019012 23.68503357 3.81468201 24.36593628 C2.90714423 30.29037378 2.10383825 36.22703291 1.3125 42.16796875 C1.05161174 44.10865576 0.79062505 46.04932955 0.52954102 47.98999023 C0.13956247 50.89087847 -0.2473377 53.79200017 -0.6242981 56.6946106 C-0.98132531 59.43833055 -1.35085893 62.18012296 -1.72265625 64.921875 C-1.82574097 65.74072678 -1.92882568 66.55957855 -2.03503418 67.40324402 C-2.8366962 73.19686509 -3.90999399 78.78499399 -8.1875 83.0625 C-12.92941855 84.50362642 -17.92630671 84.22434923 -22.8359375 84.23046875 C-23.76669098 84.23379715 -24.69744446 84.23712555 -25.65640259 84.24055481 C-27.62151599 84.24560739 -29.58663793 84.24796365 -31.55175781 84.24780273 C-34.54506692 84.24998728 -37.53800612 84.26815545 -40.53125 84.28710938 C-42.44531125 84.2900441 -44.35937423 84.29202837 -46.2734375 84.29296875 C-47.16219574 84.30015427 -48.05095398 84.30733978 -48.96664429 84.31474304 C-60.97903399 84.27096601 -60.97903399 84.27096601 -64.1875 81.0625 C-64.93290779 71.43728209 -63.61392365 61.95418773 -62.21606445 52.45776367 C-61.87219843 50.10583823 -61.54963605 47.7516113 -61.22851562 45.39648438 C-61.0116789 43.88002731 -60.79362401 42.36374382 -60.57421875 40.84765625 C-60.43339119 39.80690697 -60.43339119 39.80690697 -60.28971863 38.74513245 C-59.49056234 33.47771142 -58.11336372 29.22015964 -54.53027344 25.20581055 C-51.00388126 23.4848753 -47.53900624 23.69422329 -43.703125 23.76953125 C-42.88753113 23.77377609 -42.07193726 23.77802094 -41.23162842 23.78239441 C-38.63324616 23.79915285 -36.03564681 23.83679903 -33.4375 23.875 C-31.67318831 23.89005054 -29.90886442 23.9037383 -28.14453125 23.91601562 C-23.82522035 23.94904699 -19.5064928 24.00080914 -15.1875 24.0625 C-15.08953125 22.90492188 -14.9915625 21.74734375 -14.890625 20.5546875 C-14.74046415 19.01553881 -14.58937309 17.47648068 -14.4375 15.9375 C-14.3446875 14.79667969 -14.3446875 14.79667969 -14.25 13.6328125 C-13.71824107 8.49247618 -12.6119572 5.13379911 -9.1875 1.0625 C-5.90230525 -0.03256492 -3.45086585 -0.03710608 0 0 Z M-41.1875 42.0625 C-42.56138246 47.55802982 -43.61787324 52.50548593 -44.3125 58.0625 C-44.60125 60.3725 -44.89 62.6825 -45.1875 65.0625 C-37.2675 65.0625 -29.3475 65.0625 -21.1875 65.0625 C-20.6925 62.38125 -20.1975 59.7 -19.6875 56.9375 C-19.53087891 56.10460449 -19.37425781 55.27170898 -19.21289062 54.41357422 C-19.09107422 53.7382666 -18.96925781 53.06295898 -18.84375 52.3671875 C-18.65522461 51.3460083 -18.65522461 51.3460083 -18.46289062 50.30419922 C-18.12772694 47.57594309 -18.1875 44.81126631 -18.1875 42.0625 C-25.7775 42.0625 -33.3675 42.0625 -41.1875 42.0625 Z " fill="#000000" transform="translate(301.1875,199.9375)"/>
<path d="M0 0 C1.08815506 -0.01283524 2.17631012 -0.02567047 3.29743958 -0.03889465 C4.48278793 -0.04628159 5.66813629 -0.05366852 6.8894043 -0.0612793 C8.09928513 -0.06935104 9.30916595 -0.07742279 10.55570984 -0.08573914 C13.12224892 -0.09960025 15.68880659 -0.11031328 18.25537109 -0.11816406 C22.18647092 -0.13537914 26.11673067 -0.17924922 30.04760742 -0.22338867 C32.53653351 -0.23351469 35.02546676 -0.24203107 37.5144043 -0.2487793 C38.69367996 -0.26628738 39.87295563 -0.28379547 41.08796692 -0.30183411 C42.73438423 -0.29744576 42.73438423 -0.29744576 44.4140625 -0.29296875 C45.37923294 -0.29883499 46.34440338 -0.30470123 47.33882141 -0.31074524 C50.65685996 0.32086033 51.84851089 1.54471839 53.90112305 4.17700195 C54.21362305 7.0480957 54.21362305 7.0480957 53.90112305 10.61450195 C53.81471558 11.61235718 53.81471558 11.61235718 53.7265625 12.63037109 C53.48720961 15.15087542 53.19727516 17.66251923 52.90112305 20.17700195 C52.77141113 21.31266602 52.64169922 22.44833008 52.50805664 23.6184082 C52.05863137 27.45377044 51.57922512 31.28419838 51.08862305 35.11450195 C50.93586914 36.3583667 50.78311523 37.60223145 50.62573242 38.88378906 C48.56284473 54.05070197 48.56284473 54.05070197 44.90112305 58.17700195 C39.24818414 60.46320796 33.80461349 60.46946298 27.76831055 60.44262695 C26.33601608 60.44549713 26.33601608 60.44549713 24.87478638 60.44842529 C22.8661472 60.44978047 20.85749907 60.44613087 18.84887695 60.43774414 C15.77885283 60.4270115 12.70941067 60.43767435 9.6394043 60.45043945 C7.68237176 60.4491182 5.72533958 60.44655652 3.76831055 60.44262695 C2.85363007 60.44667542 1.93894958 60.45072388 0.99655151 60.45489502 C-7.29640187 60.39395679 -7.29640187 60.39395679 -11.09887695 58.17700195 C-15.46911432 51.6216459 -12.13429274 38.27489835 -10.7590332 30.71606445 C-9.81086436 27.06926119 -8.65118933 24.95451837 -6.09887695 22.17700195 C-2.27569209 20.71152411 1.90471601 20.95130581 5.94799805 20.8605957 C6.71919983 20.83981461 7.49040161 20.81903351 8.28497314 20.79762268 C10.74026876 20.73241623 13.19566826 20.67337712 15.65112305 20.61450195 C17.31910239 20.57128921 18.98707136 20.52767405 20.6550293 20.48364258 C24.73695501 20.3767646 28.81898486 20.27541629 32.90112305 20.17700195 C33.23112305 19.51700195 33.56112305 18.85700195 33.90112305 18.17700195 C32.34216309 18.20842285 32.34216309 18.20842285 30.75170898 18.24047852 C26.89035863 18.31295869 23.02906822 18.35883026 19.16723633 18.39672852 C17.49688602 18.41682588 15.82660592 18.44410879 14.15649414 18.47875977 C11.75348584 18.52736315 9.35140871 18.54998851 6.94799805 18.56762695 C6.20306091 18.58827209 5.45812378 18.60891724 4.69061279 18.63018799 C1.16573533 18.63170842 -0.71680596 18.47437213 -3.53930664 16.27758789 C-6.08127766 12.85380601 -6.23491521 10.84767371 -6.22387695 6.61450195 C-6.22645508 5.62321289 -6.2290332 4.63192383 -6.23168945 3.6105957 C-5.99202982 -0.7808146 -3.89707659 0.03984658 0 0 Z M6.90112305 39.17700195 C6.90112305 39.83700195 6.90112305 40.49700195 6.90112305 41.17700195 C14.82112305 41.17700195 22.74112305 41.17700195 30.90112305 41.17700195 C30.90112305 40.51700195 30.90112305 39.85700195 30.90112305 39.17700195 C22.98112305 39.17700195 15.06112305 39.17700195 6.90112305 39.17700195 Z " fill="#000000" transform="translate(184.098876953125,223.822998046875)"/>
<path d="M0 0 C1.03124496 -0.00630432 2.06248993 -0.01260864 3.12498474 -0.019104 C4.80153893 -0.01303131 4.80153893 -0.01303131 6.51196289 -0.00683594 C7.65621231 -0.00874939 8.80046173 -0.01066284 9.97938538 -0.01263428 C12.40292582 -0.01399726 14.82647353 -0.01029297 17.25 -0.00195312 C20.96574278 0.00873477 24.68100096 -0.00183983 28.39672852 -0.01464844 C30.74764104 -0.01332667 33.09855327 -0.01076392 35.44946289 -0.00683594 C37.12298073 -0.01290863 37.12298073 -0.01290863 38.83030701 -0.019104 C39.86470413 -0.01279968 40.89910126 -0.00649536 41.96484375 0 C43.331464 0.00238678 43.331464 0.00238678 44.72569275 0.00482178 C47.04711914 0.25878906 47.04711914 0.25878906 50.04711914 2.25878906 C51.37033344 9.4067408 49.78485394 17.19604741 48.73461914 24.32128906 C48.61715332 25.1545874 48.4996875 25.98788574 48.37866211 26.84643555 C48.25249512 27.63348877 48.12632812 28.42054199 47.99633789 29.23144531 C47.88636475 29.935354 47.7763916 30.6392627 47.66308594 31.36450195 C46.90265938 33.70304721 45.95242695 34.72488629 44.04711914 36.25878906 C40.24835643 37.5250433 36.62289988 37.49177454 32.66040039 37.57519531 C31.43488716 37.60636696 31.43488716 37.60636696 30.18461609 37.63816833 C27.5763688 37.70351986 24.96802139 37.7624818 22.35961914 37.82128906 C20.5907286 37.86448798 18.82184817 37.90810272 17.05297852 37.95214844 C12.71779451 38.0591865 8.38250985 38.1604945 4.04711914 38.25878906 C3.71711914 39.57878906 3.38711914 40.89878906 3.04711914 42.25878906 C4.15224854 42.24307861 5.25737793 42.22736816 6.39599609 42.21118164 C10.49406656 42.1569035 14.59210521 42.12244682 18.69042969 42.09399414 C20.46457257 42.07890265 22.23867812 42.05842715 24.01269531 42.0324707 C26.56202401 41.99610266 29.11085973 41.97906668 31.66040039 41.96582031 C32.45424637 41.95033646 33.24809235 41.9348526 34.06599426 41.91889954 C39.56621235 41.91721656 39.56621235 41.91721656 42.00878906 43.65209961 C44.10976519 46.90310452 44.15449075 49.02483105 44.10961914 52.88378906 C44.1005957 53.88667969 44.09157227 54.88957031 44.08227539 55.92285156 C44.07067383 56.69371094 44.05907227 57.46457031 44.04711914 58.25878906 C37.19711647 58.42763954 30.34694448 58.58741008 23.49658203 58.7409668 C21.16775759 58.79422945 18.83897914 58.84954566 16.51025391 58.90698242 C13.15675777 58.98933392 9.80316383 59.06422023 6.44946289 59.13769531 C5.4137767 59.16473038 4.37809052 59.19176544 3.3110199 59.21961975 C-10.0528537 59.49352841 -10.0528537 59.49352841 -13.86962891 57.01318359 C-18.28193309 49.86718001 -14.15939619 35.77502334 -12.98144531 27.72949219 C-12.63817571 25.36862297 -12.31538411 23.00552426 -11.99389648 20.64160156 C-11.77701691 19.12059386 -11.55896003 17.59975346 -11.33959961 16.07910156 C-11.24571457 15.38213165 -11.15182953 14.68516174 -11.05509949 13.96707153 C-9.94748146 6.6307145 -8.15670591 0.014258 0 0 Z " fill="#010100" transform="translate(317.952880859375,224.7412109375)"/>
<path d="M0 0 C0.7425 0.391875 1.485 0.78375 2.25 1.1875 C2.40551096 10.62923689 -1.56615603 17.99459406 -5.75 26.1875 C-6.41 26.1875 -7.07 26.1875 -7.75 26.1875 C-7.99878906 26.91324219 -8.24757813 27.63898438 -8.50390625 28.38671875 C-14.55660506 41.99106058 -30.57734338 50.68028763 -43.75 56.1875 C-57.59659047 60.52446538 -75.57963207 60.07579433 -88.67578125 53.78125 C-101.62375887 46.660702 -116.93568531 36.24826101 -122.75 22.1875 C-122.255 20.7025 -122.255 20.7025 -121.75 19.1875 C-118.51953125 18.87109375 -118.51953125 18.87109375 -114.75 19.1875 C-112.44921875 21.34765625 -112.44921875 21.34765625 -110.4375 24.25 C-103.06194426 33.94287561 -93.90619326 39.739425 -81.73291016 41.47509766 C-65.71782261 43.20203672 -53.30056797 37.20637513 -40.82421875 27.51953125 C-36.722481 24.40804785 -32.45548399 21.56461704 -28.1875 18.6875 C-22.04223316 14.52827303 -16.11601193 10.29736957 -10.46484375 5.48046875 C-8.75 4.1875 -8.75 4.1875 -6.75 4.1875 C-6.75 3.5275 -6.75 2.8675 -6.75 2.1875 C-4.2662318 -0.38825961 -3.5298711 -1.04291646 0 0 Z " fill="#90A007" transform="translate(438.75,263.8125)"/>
<path d="M0 0 C8.0310973 6.8089738 12.35862652 15.74425568 13.625 26.1875 C13.92007871 30.33827386 13.86010978 34.46563656 13.8125 38.625 C13.77607965 50.68013609 14.91782967 60.83765678 20.53515625 71.6328125 C21.80319417 74.28718924 22.44545559 76.5420525 22.875 79.4375 C20.65571546 81.4923931 19.49617575 82.42760867 16.421875 82.4765625 C13.875 81.4375 13.875 81.4375 12.21484375 78.26953125 C11.72722892 76.93689454 11.2604756 75.59647937 10.8125 74.25 C8.43457468 67.42262339 5.9514743 61.49306194 -0.1875 57.1875 C-0.85910156 56.70796875 -1.53070313 56.2284375 -2.22265625 55.734375 C-3.84979492 54.62511414 -5.48646503 53.52985665 -7.125 52.4375 C-7.125 51.7775 -7.125 51.1175 -7.125 50.4375 C-7.70507812 50.15777344 -8.28515625 49.87804687 -8.8828125 49.58984375 C-19.04553796 44.37431963 -23.703228 36.76986856 -28.4375 26.625 C-29.69446793 20.79723961 -30.59576708 14.57175537 -27.9921875 9.0234375 C-21.1762631 -0.50458247 -10.90193814 -5.45096907 0 0 Z M-19.76953125 8.22265625 C-22.41253497 12.54133956 -21.67789229 17.55976137 -21.125 22.4375 C-19.39650618 28.47793539 -16.04668373 33.58699644 -12.125 38.4375 C-11.465 38.4375 -10.805 38.4375 -10.125 38.4375 C-10.125 39.0975 -10.125 39.7575 -10.125 40.4375 C-4.55182184 43.40195647 -0.29144996 44.17032024 5.875 42.4375 C8.98326371 40.36532419 9.77662691 38.65563164 11.3125 35.25 C12.04236789 30.30311764 10.78514065 26.96638187 8.875 22.4375 C6.895 23.4275 6.895 23.4275 4.875 24.4375 C4.875 25.7575 4.875 27.0775 4.875 28.4375 C4.215 29.0975 3.555 29.7575 2.875 30.4375 C3.535 30.4375 4.195 30.4375 4.875 30.4375 C4.875 31.7575 4.875 33.0775 4.875 34.4375 C4.33875 34.56125 3.8025 34.685 3.25 34.8125 C0.4111714 35.55956016 -2.34723202 36.49053364 -5.125 37.4375 C-5.455 36.1175 -5.785 34.7975 -6.125 33.4375 C-6.125 34.0975 -6.125 34.7575 -6.125 35.4375 C-9.125 34.4375 -9.125 34.4375 -11.125 31.4375 C-12.445 31.7675 -13.765 32.0975 -15.125 32.4375 C-15.125 31.1175 -15.125 29.7975 -15.125 28.4375 C-15.785 28.4375 -16.445 28.4375 -17.125 28.4375 C-17.75 25.0625 -17.75 25.0625 -18.125 21.4375 C-17.465 20.7775 -16.805 20.1175 -16.125 19.4375 C-16.44541397 16.83469432 -16.44541397 16.83469432 -17.125 14.4375 C-16.465 14.1075 -15.805 13.7775 -15.125 13.4375 C-15.455 12.1175 -15.785 10.7975 -16.125 9.4375 C-5.92892157 6.69240196 -5.92892157 6.69240196 -1.125 9.4375 C-0.795 10.4275 -0.465 11.4175 -0.125 12.4375 C0.865 11.7775 1.855 11.1175 2.875 10.4375 C1.36103365 6.19839421 -1.21887835 4.50111144 -5.125 2.4375 C-11.56557254 1.51741821 -15.41363914 3.4942888 -19.76953125 8.22265625 Z M-12.125 11.4375 C-11.125 13.4375 -11.125 13.4375 -11.125 13.4375 Z M3.875 12.4375 C4.875 14.4375 4.875 14.4375 4.875 14.4375 Z M0.875 49.4375 C3.49441217 51.18377478 4.91324877 51.82472388 7.875 52.4375 C7.875 50.7875 7.875 49.1375 7.875 47.4375 C5.52212386 47.4375 3.08126776 48.68643012 0.875 49.4375 Z " fill="#0C0D0D" transform="translate(234.125,137.5625)"/>
<path d="M0 0 C2.27060005 0.05287296 4.54152047 0.09225673 6.8125 0.125 C21.94586436 0.85576426 31.85318282 10.85318282 42 21 C42.71247732 22.6476038 43.37400383 24.31763529 44 26 C44.556875 27.3921875 44.556875 27.3921875 45.125 28.8125 C45.41375 29.534375 45.7025 30.25625 46 31 C42.79986804 28.4696631 39.93156233 26.06074745 37.375 22.875 C35.35076572 20.42461113 33.68096625 18.66404801 31 17 C30.34 17 29.68 17 29 17 C28.505 15.515 28.505 15.515 28 14 C23.90025188 10.87638238 19.73596431 8.91260097 15 7 C14.01 6.505 14.01 6.505 13 6 C10.50459004 6.12272508 8.09993489 6.32969527 5.625 6.625 C4.95210938 6.68300781 4.27921875 6.74101562 3.5859375 6.80078125 C-0.09427424 7.24269644 -1.72481594 7.6981083 -4.25390625 10.47265625 C-4.83011719 11.30667969 -5.40632813 12.14070312 -6 13 C-9.54416155 14.80316991 -12.01265607 16 -16 16 C-16 16.66 -16 17.32 -16 18 C-16.721875 18.226875 -17.44375 18.45375 -18.1875 18.6875 C-21.55538115 20.25917787 -23.45032767 22.31957525 -26 25 C-29.62068966 28 -29.62068966 28 -32 28 C-35.70375558 29.20372056 -36.76865454 29.65298181 -39 33 C-42.33655757 34.3130756 -45.75098112 34.11438216 -49.296875 34.09765625 C-50.50214844 34.09443359 -51.70742188 34.09121094 -52.94921875 34.08789062 C-54.20347656 34.07951172 -55.45773437 34.07113281 -56.75 34.0625 C-58.01972656 34.05798828 -59.28945313 34.05347656 -60.59765625 34.04882812 C-63.73181836 34.03704556 -66.86588541 34.02059416 -70 34 C-61.85275367 18.07936367 -50.11437808 7.07782569 -33.10546875 0.99609375 C-29.09260638 -0.29105078 -25.15789439 -1.3211601 -21 -2 C-20.27425781 -2.1340625 -19.54851562 -2.268125 -18.80078125 -2.40625 C-12.46403197 -3.37943314 -5.81363245 -2.90681622 0 0 Z " fill="#DFF720" transform="translate(385,191)"/>
<path d="M0 0 C0.90105469 0.00902344 1.80210937 0.01804688 2.73046875 0.02734375 C3.41753906 0.03894531 4.10460937 0.05054688 4.8125 0.0625 C4.90581314 5.53087935 4.60369407 10.78433455 3.859375 16.20703125 C3.75924103 16.96674225 3.65910706 17.72645325 3.55593872 18.50918579 C3.23045911 20.96525336 2.89704691 23.42015228 2.5625 25.875 C2.33337998 27.57623762 2.10437705 29.27749102 1.87548828 30.97875977 C1.3031684 35.21605551 0.72227777 39.45212875 0.1385498 43.68786621 C-0.16696163 45.9129182 -0.46859032 48.13845215 -0.76855469 50.36425781 C-1.2718307 54.07786645 -1.78899069 57.78919673 -2.3125 61.5 C-2.45848633 62.58063721 -2.60447266 63.66127441 -2.75488281 64.7746582 C-3.56190976 70.33392862 -4.55686017 75.0731211 -7.1875 80.0625 C-11.5024985 83.0699232 -17.12715117 82.23936656 -22.1875 82.0625 C-21.72574773 72.58861726 -20.6148408 63.31884701 -19.203125 53.94921875 C-18.48099873 49.14528124 -17.81389112 44.33590861 -17.1678009 39.52131653 C-16.66692769 35.80549208 -16.15240045 32.09161179 -15.63656616 28.37783813 C-15.37975191 26.50747536 -15.12842924 24.63634999 -14.88272095 22.76449585 C-14.531914 20.10110184 -14.16067622 17.44125694 -13.78515625 14.78125 C-13.68406555 13.97681961 -13.58297485 13.17238922 -13.4788208 12.34358215 C-12.77752472 7.55057008 -11.79864615 4.55244407 -8.1875 1.0625 C-5.17259443 0.05753148 -3.14568308 -0.04085303 0 0 Z " fill="#030300" transform="translate(391.1875,200.9375)"/>
<path d="M0 0 C1.65 0 3.3 0 5 0 C6.46939453 4.30322683 7.77443263 8.62297367 9 13 C9.20496094 12.14535156 9.40992188 11.29070312 9.62109375 10.41015625 C9.89050781 9.30542969 10.15992188 8.20070312 10.4375 7.0625 C10.70433594 5.96035156 10.97117188 4.85820312 11.24609375 3.72265625 C12 1 12 1 13 0 C15.18639453 -0.07258946 17.37500389 -0.08373783 19.5625 -0.0625 C21.35880859 -0.04896484 21.35880859 -0.04896484 23.19140625 -0.03515625 C24.11824219 -0.02355469 25.04507813 -0.01195312 26 0 C27.12880057 3.31114834 28.21302675 6.58978257 29 10 C29.09087891 9.04287109 29.09087891 9.04287109 29.18359375 8.06640625 C29.26738281 7.24011719 29.35117188 6.41382813 29.4375 5.5625 C29.51871094 4.73878906 29.59992188 3.91507813 29.68359375 3.06640625 C30 1 30 1 31 0 C33.5 -0.125 33.5 -0.125 36 0 C37.84276509 1.84276509 37.12874411 4.42963759 37.13894653 6.88134766 C37.1369223 7.70425293 37.13489807 8.5271582 37.1328125 9.375 C37.13376923 10.21466309 37.13472595 11.05432617 37.13571167 11.91943359 C37.13639348 13.69824295 37.13453917 15.47705477 37.13037109 17.25585938 C37.12502283 19.98833776 37.13031605 22.72065176 37.13671875 25.453125 C37.13605797 27.1770837 37.13477681 28.90104229 37.1328125 30.625 C37.13483673 31.44790527 37.13686096 32.27081055 37.13894653 33.11865234 C37.11495054 38.88504946 37.11495054 38.88504946 36 40 C34.00041636 40.04080783 31.99954746 40.04254356 30 40 C28.5783681 36.6828589 27.60990891 33.55780196 27 30 C26.90912109 30.95712891 26.90912109 30.95712891 26.81640625 31.93359375 C26.73261719 32.75988281 26.64882812 33.58617187 26.5625 34.4375 C26.48128906 35.26121094 26.40007812 36.08492187 26.31640625 36.93359375 C26 39 26 39 25 40 C22.5 40.125 22.5 40.125 20 40 C18.02170928 38.02170928 18.74496068 34.17672973 18.68359375 31.46484375 C18.66281265 30.71159317 18.64203156 29.95834259 18.62062073 29.18226624 C18.55504575 26.7674401 18.49620379 24.35250202 18.4375 21.9375 C18.3943223 20.30402471 18.35070827 18.6705609 18.30664062 17.03710938 C18.19935638 13.02485536 18.09811179 9.01248836 18 5 C13.90755154 20.70769486 13.90755154 20.70769486 12.140625 36.796875 C12 39 12 39 11 40 C9.33382885 40.04063832 7.66611905 40.042721 6 40 C5.87044922 38.36417969 5.87044922 38.36417969 5.73828125 36.6953125 C4.90366535 27.401246 3.41036675 18.75066218 0.58911133 9.84033203 C-0.5642022 6.11084632 -1.17589353 3.72889476 0 0 Z " fill="#010101" transform="translate(150,182)"/>
<path d="M0 0 C2.5 0.125 2.5 0.125 3.5 1.125 C3.58843793 3.57330426 3.61528752 5.99320599 3.59765625 8.44140625 C3.5962413 9.17246078 3.59482635 9.90351532 3.59336853 10.65672302 C3.58775408 13.00035632 3.57519922 15.34389539 3.5625 17.6875 C3.55748686 19.27278508 3.55292363 20.85807166 3.54882812 22.44335938 C3.53777997 26.3372761 3.52050572 30.23112205 3.5 34.125 C5.81 34.125 8.12 34.125 10.5 34.125 C10.54898438 33.53654297 10.59796875 32.94808594 10.6484375 32.34179688 C11.25144519 25.69311729 12.27976341 19.18598224 13.5 12.625 C13.67789063 11.63757813 13.85578125 10.65015625 14.0390625 9.6328125 C15.3691829 2.3866342 15.3691829 2.3866342 16.5 0.125 C18.875 0 18.875 0 21.5 0.125 C24.26903459 2.89403459 24.38310853 5.89315687 25.0078125 9.6171875 C25.13815887 10.35953644 25.26850525 11.10188538 25.40280151 11.86672974 C25.67708155 13.43800761 25.94749947 15.00996379 26.21435547 16.58251953 C26.62245199 18.98499979 27.04258481 21.38512904 27.46484375 23.78515625 C27.72988026 25.31237633 27.99422594 26.8397165 28.2578125 28.3671875 C28.44526535 29.44237137 28.44526535 29.44237137 28.63650513 30.53927612 C29.18804043 33.80934736 29.5 36.79436194 29.5 40.125 C27.50045254 40.16754356 25.49958364 40.16580783 23.5 40.125 C22.5 39.125 22.5 39.125 22.4375 36.0625 C22.458125 35.093125 22.47875 34.12375 22.5 33.125 C20.52 33.125 18.54 33.125 16.5 33.125 C16.520625 34.094375 16.54125 35.06375 16.5625 36.0625 C16.5 39.125 16.5 39.125 15.5 40.125 C14.16956375 40.2233721 12.83406656 40.25578592 11.5 40.2578125 C10.695625 40.25910156 9.89125 40.26039063 9.0625 40.26171875 C8.216875 40.25785156 7.37125 40.25398438 6.5 40.25 C5.654375 40.25386719 4.80875 40.25773437 3.9375 40.26171875 C3.133125 40.26042969 2.32875 40.25914062 1.5 40.2578125 C0.7575 40.25668457 0.015 40.25555664 -0.75 40.25439453 C-2.5 40.125 -2.5 40.125 -3.5 39.125 C-3.60103255 36.32506403 -3.63970088 33.55031356 -3.6328125 30.75 C-3.63376923 29.91033691 -3.63472595 29.07067383 -3.63571167 28.20556641 C-3.63639348 26.42675705 -3.63453917 24.64794523 -3.63037109 22.86914062 C-3.62502283 20.13666224 -3.63031605 17.40434824 -3.63671875 14.671875 C-3.63605797 12.9479163 -3.63477681 11.22395771 -3.6328125 9.5 C-3.63483673 8.67709473 -3.63686096 7.85418945 -3.63894653 7.00634766 C-3.61054191 0.1805271 -3.61054191 0.1805271 0 0 Z M18.5 20.125 C18.17 22.765 17.84 25.405 17.5 28.125 C18.82 27.795 20.14 27.465 21.5 27.125 C21.17 24.815 20.84 22.505 20.5 20.125 C19.84 20.125 19.18 20.125 18.5 20.125 Z " fill="#030303" transform="translate(120.5,181.875)"/>
<path d="M0 0 C8.20531373 6.95667903 12.44237199 16.02764749 13.625 26.6875 C13.89438795 30.60928739 13.9604203 34.50816639 13.875 38.4375 C12.555 38.4375 11.235 38.4375 9.875 38.4375 C10.08125 37.426875 10.2875 36.41625 10.5 35.375 C10.90338206 31.13948842 10.20771305 28.43563914 8.875 24.4375 C8.875 23.7775 8.875 23.1175 8.875 22.4375 C7.885 23.0975 6.895 23.7575 5.875 24.4375 C5.875 25.7575 5.875 27.0775 5.875 28.4375 C5.545 29.0975 5.215 29.7575 4.875 30.4375 C4.875 31.7575 4.875 33.0775 4.875 34.4375 C1.14534861 36.47185531 -0.79405042 37.4375 -5.125 37.4375 C-5.455 36.7775 -5.785 36.1175 -6.125 35.4375 C-6.785 35.2725 -7.445 35.1075 -8.125 34.9375 C-8.785 34.7725 -9.445 34.6075 -10.125 34.4375 C-10.455 33.7775 -10.785 33.1175 -11.125 32.4375 C-12.445 32.4375 -13.765 32.4375 -15.125 32.4375 C-15.125 31.1175 -15.125 29.7975 -15.125 28.4375 C-15.785 28.4375 -16.445 28.4375 -17.125 28.4375 C-17.785 26.1275 -18.445 23.8175 -19.125 21.4375 C-18.465 20.7775 -17.805 20.1175 -17.125 19.4375 C-17.0799714 17.77144172 -17.08625079 16.10371616 -17.125 14.4375 C-17 11.8125 -17 11.8125 -16.125 9.4375 C-13.12935819 7.39501694 -11.21742641 6.35756636 -7.5625 6.625 C-0.625 8.9375 -0.625 8.9375 0.875 10.4375 C1.535 10.4375 2.195 10.4375 2.875 10.4375 C1.885 8.7875 0.895 7.1375 -0.125 5.4375 C3.75 7.3125 3.75 7.3125 4.875 8.4375 C0.87341198 3.06001828 0.87341198 3.06001828 -5.125 0.4375 C-9.30585382 0.21352569 -13.05740005 0.45141516 -17.125 1.4375 C-17.125 0.7775 -17.125 0.1175 -17.125 -0.5625 C-10.86522606 -3.22290393 -6.0169995 -3.00849975 0 0 Z M-12.125 11.4375 C-11.125 13.4375 -11.125 13.4375 -11.125 13.4375 Z M3.875 12.4375 C4.875 14.4375 4.875 14.4375 4.875 14.4375 Z " fill="#303030" transform="translate(234.125,137.5625)"/>
<path d="M0 0 C-1.35085744 2.70171489 -2.55532476 2.70461636 -5.375 3.6875 C-11.46647861 6.03237316 -16.60076495 9.37342762 -22 13 C-23.49080078 13.96486328 -23.49080078 13.96486328 -25.01171875 14.94921875 C-30.87369665 18.76963713 -36.43720203 22.79590101 -41.84375 27.23828125 C-42.5553125 27.81964844 -43.266875 28.40101563 -44 29 C-44.60328125 29.5671875 -45.2065625 30.134375 -45.828125 30.71875 C-48.9939183 32.58634029 -51.61497016 32.28847305 -55.25 32.1875 C-56.51328125 32.16042969 -57.7765625 32.13335937 -59.078125 32.10546875 C-60.04234375 32.07066406 -61.0065625 32.03585938 -62 32 C-59.77855153 25.01009749 -59.77855153 25.01009749 -57 22 C-56.34 22 -55.68 22 -55 22 C-54.74992187 21.41992188 -54.49984375 20.83984375 -54.2421875 20.2421875 C-49.63196494 11.92059081 -40.29338677 7.73535919 -32 4 C-31.20335937 3.608125 -30.40671875 3.21625 -29.5859375 2.8125 C-20.98683051 -1.31993304 -8.84732505 -4.99893703 0 0 Z " fill="#C7E002" transform="translate(381,193)"/>
<path d="M0 0 C1.9375 0.9375 1.9375 0.9375 3.1875 3.5 C3.435 4.304375 3.6825 5.10875 3.9375 5.9375 C2.7928125 6.1540625 2.7928125 6.1540625 1.625 6.375 C-1.14422908 6.9007594 -1.14422908 6.9007594 -4.0625 7.9375 C-4.0625 8.5975 -4.0625 9.2575 -4.0625 9.9375 C-5.8359375 11.42578125 -5.8359375 11.42578125 -8.4375 13.25 C-9.43652344 13.95769531 -10.43554688 14.66539062 -11.46484375 15.39453125 C-12.03187012 15.79365723 -12.59889648 16.1927832 -13.18310547 16.60400391 C-15.26041695 18.07792899 -17.32052942 19.57396915 -19.37890625 21.07421875 C-23.92316623 24.38584093 -28.48666923 27.66966109 -33.0625 30.9375 C-33.63145996 31.34564941 -34.20041992 31.75379883 -34.78662109 32.17431641 C-43.0860326 38.08590104 -51.90014355 42.55312657 -61.0625 46.9375 C-62.0525 47.4325 -62.0525 47.4325 -63.0625 47.9375 C-77.79893035 48.88373395 -89.44722205 47.51655997 -101.50390625 38.2421875 C-105.58350478 34.56743462 -108.8759718 30.39316121 -112.0625 25.9375 C-111.0725 25.6075 -110.0825 25.2775 -109.0625 24.9375 C-107.5625 26.3125 -107.5625 26.3125 -106.0625 27.9375 C-106.0625 28.5975 -106.0625 29.2575 -106.0625 29.9375 C-105.0725 30.2675 -104.0825 30.5975 -103.0625 30.9375 C-100.875 32.875 -100.875 32.875 -99.0625 34.9375 C-99.0625 35.5975 -99.0625 36.2575 -99.0625 36.9375 C-97.7425 36.9375 -96.4225 36.9375 -95.0625 36.9375 C-95.0625 37.5975 -95.0625 38.2575 -95.0625 38.9375 C-93.64648286 39.41858275 -92.22965563 39.89728141 -90.8125 40.375 C-90.02359375 40.64183594 -89.2346875 40.90867187 -88.421875 41.18359375 C-79.2521027 44.11367 -69.28663158 44.37883386 -60.45703125 40.2421875 C-50.8066476 34.98406656 -42.05651026 28.39729968 -33.19921875 21.92578125 C-29.87588357 19.5058152 -26.48399812 17.21702903 -23.0625 14.9375 C-19.98421801 12.75089286 -16.92950509 10.53215658 -13.875 8.3125 C-12.27770289 7.15315086 -10.68006098 5.99427659 -9.08203125 4.8359375 C-8.38182861 4.32724121 -7.68162598 3.81854492 -6.96020508 3.29443359 C-2.25719943 -0.06839998 -2.25719943 -0.06839998 0 0 Z " fill="#BDC1A0" transform="translate(436.0625,258.0625)"/>
<path d="M0 0 C1.61261719 0.00386719 1.61261719 0.00386719 3.2578125 0.0078125 C4.32773438 0.00523437 5.39765625 0.00265625 6.5 0 C9.3828125 0.1328125 9.3828125 0.1328125 12.3828125 1.1328125 C13.83233835 4.0318642 13.77327283 6.78456726 14.0078125 10.0078125 C14.10320312 11.24273437 14.19859375 12.47765625 14.296875 13.75 C14.3712951 16.6794458 14.07284001 18.37792996 13.3828125 21.1328125 C13.38987347 24.55385398 13.45691247 27.95932702 13.59765625 31.37695312 C13.70337498 36.55236544 13.70337498 36.55236544 12.2890625 39.11328125 C9.4220264 40.64667556 6.9812645 40.45428594 3.7578125 40.3828125 C2.00597656 40.35960937 2.00597656 40.35960937 0.21875 40.3359375 C-2.6171875 40.1328125 -2.6171875 40.1328125 -3.6171875 39.1328125 C-3.71822005 36.33287653 -3.75688838 33.55812606 -3.75 30.7578125 C-3.75095673 29.91814941 -3.75191345 29.07848633 -3.75289917 28.21337891 C-3.75358098 26.43456955 -3.75172667 24.65575773 -3.74755859 22.87695312 C-3.74221033 20.14447474 -3.74750355 17.41216074 -3.75390625 14.6796875 C-3.75324547 12.9557288 -3.75196431 11.23177021 -3.75 9.5078125 C-3.75202423 8.68490723 -3.75404846 7.86200195 -3.75613403 7.01416016 C-3.72773286 0.18916853 -3.72773286 0.18916853 0 0 Z M3.3828125 6.1328125 C3.3828125 9.7628125 3.3828125 13.3928125 3.3828125 17.1328125 C4.7028125 17.1328125 6.0228125 17.1328125 7.3828125 17.1328125 C7.3828125 13.5028125 7.3828125 9.8728125 7.3828125 6.1328125 C6.0628125 6.1328125 4.7428125 6.1328125 3.3828125 6.1328125 Z M3.3828125 22.1328125 C3.3828125 26.0928125 3.3828125 30.0528125 3.3828125 34.1328125 C4.7028125 34.1328125 6.0228125 34.1328125 7.3828125 34.1328125 C7.3828125 30.5028125 7.3828125 26.8728125 7.3828125 23.1328125 C6.0628125 22.8028125 4.7428125 22.4728125 3.3828125 22.1328125 Z " fill="#030303" transform="translate(100.6171875,181.8671875)"/>
<path d="M0 0 C4.29 0 8.58 0 13 0 C13.66 1.32 14.32 2.64 15 4 C14.67 4.66 14.34 5.32 14 6 C11.36 6 8.72 6 6 6 C6 9.63 6 13.26 6 17 C7.4540625 16.9690625 7.4540625 16.9690625 8.9375 16.9375 C12 17 12 17 13 18 C13.04063832 19.66617115 13.042721 21.33388095 13 23 C10.69 23 8.38 23 6 23 C6 26.63 6 30.26 6 34 C8.64 34 11.28 34 14 34 C14.38218767 35.65614657 14.71395102 37.32457024 15 39 C14 40 14 40 10.83984375 40.09765625 C9.55207031 40.08605469 8.26429688 40.07445312 6.9375 40.0625 C5.64714844 40.05347656 4.35679687 40.04445312 3.02734375 40.03515625 C2.02832031 40.02355469 1.02929688 40.01195312 0 40 C-1.7851632 3.57032641 -1.7851632 3.57032641 0 0 Z " fill="#040404" transform="translate(190,182)"/>
<path d="M0 0 C-1.5530639 3.10612781 -4.56291324 4.01726735 -7.5625 5.5 C-8.45678711 5.96212891 -8.45678711 5.96212891 -9.36914062 6.43359375 C-17.4141943 10.4518092 -24.86036137 11.36309206 -33.75 11.3125 C-35.20273315 11.30839111 -35.20273315 11.30839111 -36.68481445 11.30419922 C-44.92240402 11.18406339 -52.96736416 10.68842389 -60 6 C-60 5.01 -60 4.02 -60 3 C-57.77090129 2.97285265 -55.54170633 2.95353746 -53.3125 2.9375 C-52.07113281 2.92589844 -50.82976562 2.91429687 -49.55078125 2.90234375 C-46 3 -46 3 -43.38671875 3.52734375 C-40.61335317 4.07656999 -38.30750287 3.91679103 -35.5 3.625 C-34.5821875 3.53476562 -33.664375 3.44453125 -32.71875 3.3515625 C-30.112274 3.01451819 -27.56932444 2.54923964 -25 2 C-25 1.34 -25 0.68 -25 0 C-22.69 0.33 -20.38 0.66 -18 1 C-18 1.99 -18 2.98 -18 4 C-16.96875 3.360625 -15.9375 2.72125 -14.875 2.0625 C-9.84609769 -0.7966743 -5.64247811 -1.49359715 0 0 Z " fill="#626D04" transform="translate(410,311)"/>
<path d="M0 0 C3.1875 -0.25 3.1875 -0.25 6 0 C4.32909835 2.55032358 3.12851705 3.92790507 0.4375 5.4375 C-2.47597454 7.30511189 -3.03159575 8.74264026 -4 12 C-4.66 11.67 -5.32 11.34 -6 11 C-5.67 10.34 -5.34 9.68 -5 9 C-6.65 9.33 -8.3 9.66 -10 10 C-9.67 10.99 -9.34 11.98 -9 13 C-9.99 13 -10.98 13 -12 13 C-12 13.99 -12 14.98 -12 16 C-12.66 16.66 -13.32 17.32 -14 18 C-14.33 18.99 -14.66 19.98 -15 21 C-15.66 21 -16.32 21 -17 21 C-16.34 21.66 -15.68 22.32 -15 23 C-14.67 23.99 -14.34 24.98 -14 26 C-13.01 26 -12.02 26 -11 26 C-11.33 27.65 -11.66 29.3 -12 31 C-13.11761719 30.27876953 -13.11761719 30.27876953 -14.2578125 29.54296875 C-19.14385898 27.09994551 -24.52401698 27.42782291 -29.875 27.3125 C-30.94492187 27.27833984 -32.01484375 27.24417969 -33.1171875 27.20898438 C-35.74468689 27.12687502 -38.37186816 27.05760376 -41 27 C-40.35675781 26.87367188 -39.71351563 26.74734375 -39.05078125 26.6171875 C-38.37402344 26.41351563 -37.69726562 26.20984375 -37 26 C-36.731875 25.38125 -36.46375 24.7625 -36.1875 24.125 C-34.32637496 20.79456572 -31.47794666 20.24212381 -28 19 C-27.34 19 -26.68 19 -26 19 C-23.40465658 18.02674622 -22.2521291 17.44822951 -20.875 15 C-20.58625 14.34 -20.2975 13.68 -20 13 C-19.34 12.34 -18.68 11.68 -18 11 C-16.68 11 -15.36 11 -14 11 C-14 10.34 -14 9.68 -14 9 C-13.24074219 8.68546875 -12.48148437 8.3709375 -11.69921875 8.046875 C-10.70535156 7.61890625 -9.71148437 7.1909375 -8.6875 6.75 C-7.20830078 6.12351563 -7.20830078 6.12351563 -5.69921875 5.484375 C-2.87827862 3.93306205 -1.85603586 2.54665385 0 0 Z " fill="#9DB203" transform="translate(383,198)"/>
<path d="M0 0 C-1.03898437 0.56847656 -2.07796875 1.13695312 -3.1484375 1.72265625 C-11.07941004 6.09783956 -18.73217958 10.56948458 -26 16 C-27.02222656 16.75667969 -28.04445313 17.51335937 -29.09765625 18.29296875 C-34.94681716 22.60390548 -34.94681716 22.60390548 -40.5234375 27.25390625 C-43.41753611 29.29438271 -44.82516273 29.43599132 -48.3125 29.25 C-49.19550781 29.21390625 -50.07851563 29.1778125 -50.98828125 29.140625 C-51.98408203 29.07101563 -51.98408203 29.07101563 -53 29 C-52.67 28.34 -52.34 27.68 -52 27 C-51.01 27 -50.02 27 -49 27 C-48.814375 26.21625 -48.62875 25.4325 -48.4375 24.625 C-47 22 -47 22 -43.375 20.6875 C-42.26125 20.460625 -41.1475 20.23375 -40 20 C-40 19.34 -40 18.68 -40 18 C-39.34 18 -38.68 18 -38 18 C-37.67 16.68 -37.34 15.36 -37 14 C-35.9275 13.7525 -34.855 13.505 -33.75 13.25 C-30.0186339 12.3167763 -30.0186339 12.3167763 -28 10 C-25.30587786 7.30587786 -22.64104358 7.00442582 -19 6 C-17.96875 5.29875 -16.9375 4.5975 -15.875 3.875 C-12.84385935 1.89816914 -11.52393393 1.58541954 -8 2 C-8 1.34 -8 0.68 -8 0 C-4.90645403 -0.99435406 -3.09720845 -0.87840996 0 0 Z " fill="#B6CC02" transform="translate(376,196)"/>
<path d="M0 0 C2.75 1.6875 2.75 1.6875 4.75 4.6875 C5.41 5.3475 6.07 6.0075 6.75 6.6875 C7.1640625 8.82421875 7.1640625 8.82421875 7.375 11.375 C7.44847656 12.26316406 7.52195313 13.15132812 7.59765625 14.06640625 C7.78485126 17.28712046 7.82010739 20.46255997 7.75 23.6875 C6.43 23.6875 5.11 23.6875 3.75 23.6875 C4.059375 22.1715625 4.059375 22.1715625 4.375 20.625 C4.77838206 16.38948842 4.08271305 13.68563914 2.75 9.6875 C2.75 9.0275 2.75 8.3675 2.75 7.6875 C1.76 8.3475 0.77 9.0075 -0.25 9.6875 C-0.25 11.0075 -0.25 12.3275 -0.25 13.6875 C-2.23 13.6875 -4.21 13.6875 -6.25 13.6875 C-6.58 14.6775 -6.91 15.6675 -7.25 16.6875 C-9.56 17.0175 -11.87 17.3475 -14.25 17.6875 C-12.5 12.8125 -12.5 12.8125 -10.25 11.6875 C-10.91 11.3575 -11.57 11.0275 -12.25 10.6875 C-12.25 10.0275 -12.25 9.3675 -12.25 8.6875 C-13.57 8.6875 -14.89 8.6875 -16.25 8.6875 C-15.25 5.6875 -15.25 5.6875 -13.3125 4.625 C-12.631875 4.315625 -11.95125 4.00625 -11.25 3.6875 C-10.59 3.0275 -9.93 2.3675 -9.25 1.6875 C-10.57 2.0175 -11.89 2.3475 -13.25 2.6875 C-12.92 1.6975 -12.59 0.7075 -12.25 -0.3125 C-7.674119 -1.83779367 -4.49794491 -1.81647775 0 0 Z " fill="#373736" transform="translate(240.25,152.3125)"/>
<path d="M0 0 C-2.77306482 3.41381085 -6.61506745 4.86766133 -10.5 6.6875 C-17.60882812 10.13680082 -23.72968811 14.18046616 -30 19 C-32.89581981 21.19600256 -35.81690177 23.35412253 -38.75 25.5 C-39.45954834 26.04108398 -40.16909668 26.58216797 -40.90014648 27.13964844 C-45.51257245 30.49590826 -48.28577139 31.6581834 -54 31 C-45.45245938 22.20470458 -35.5440478 15.53171613 -25.1875 9.0625 C-24.30449219 8.50691406 -23.42148437 7.95132813 -22.51171875 7.37890625 C-15.20900052 2.89169384 -8.74825005 -0.54676563 0 0 Z " fill="#D7DCAE" transform="translate(387,194)"/>
<path d="M0 0 C1.875 0.25 1.875 0.25 4 1 C4.69937532 2.31647119 5.36729133 3.65022151 6 5 C6.99 5.33 7.98 5.66 9 6 C11.1875 7.9375 11.1875 7.9375 13 10 C13 10.66 13 11.32 13 12 C14.32 12 15.64 12 17 12 C17 12.66 17 13.32 17 14 C18.41601714 14.48108275 19.83284437 14.95978141 21.25 15.4375 C22.03890625 15.70433594 22.8278125 15.97117187 23.640625 16.24609375 C32.85762483 19.19126092 42.7962061 18.94521405 52 16 C51.67 17.32 51.34 18.64 51 20 C51.99 20.33 52.98 20.66 54 21 C45.6277697 25.16114826 33.29232878 24.08916182 24.5625 21.5 C14.06986272 17.34938553 6.29803037 10.25756327 0 1 C0 0.67 0 0.34 0 0 Z " fill="#B9BE9A" transform="translate(324,283)"/>
<path d="M0 0 C2.4375 1.625 2.4375 1.625 4 4 C4.46337203 8.40203429 4.48038907 10.2794164 2 14 C1.34 14 0.68 14 0 14 C0 14.66 0 15.32 0 16 C-8.04761905 16.61904762 -8.04761905 16.61904762 -11.5 14.375 C-13.3892904 11.38362353 -14 9.55537834 -14 6 C-10.39324385 -0.82707415 -7.40808281 -1.68956275 0 0 Z M-8 3 C-8.66 3.66 -9.32 4.32 -10 5 C-10 5.99 -10 6.98 -10 8 C-7.69 8.66 -5.38 9.32 -3 10 C-2.67 8.68 -2.34 7.36 -2 6 C-4.67247634 3.65712582 -4.67247634 3.65712582 -8 3 Z " fill="#202020" transform="translate(265,165)"/>
<path d="M0 0 C0.89203125 0.00902344 1.7840625 0.01804688 2.703125 0.02734375 C3.37859375 0.03894531 4.0540625 0.05054688 4.75 0.0625 C4.75 0.7225 4.75 1.3825 4.75 2.0625 C3.19539063 2.19205078 3.19539063 2.19205078 1.609375 2.32421875 C0.23946132 2.46496331 -1.13032449 2.60695625 -2.5 2.75 C-3.52287109 2.83024414 -3.52287109 2.83024414 -4.56640625 2.91210938 C-8.28632105 3.32743967 -9.94778111 3.73261686 -12.51171875 6.53125 C-13.37216797 7.78421875 -13.37216797 7.78421875 -14.25 9.0625 C-17.79416155 10.86566991 -20.26265607 12.0625 -24.25 12.0625 C-24.25 12.7225 -24.25 13.3825 -24.25 14.0625 C-25.3328125 14.4028125 -25.3328125 14.4028125 -26.4375 14.75 C-29.80538115 16.32167787 -31.70032767 18.38207525 -34.25 21.0625 C-37.87068966 24.0625 -37.87068966 24.0625 -40.25 24.0625 C-43.95375558 25.26622056 -45.01865454 25.71548181 -47.25 29.0625 C-50.375 29.75 -50.375 29.75 -53.25 30.0625 C-49.5431781 26.09493208 -45.68714303 23.17023766 -41.125 20.25 C-36.49852819 17.24363655 -32.00804135 14.17068315 -27.625 10.8125 C-19.5390384 4.83591969 -10.2102195 -0.13434499 0 0 Z " fill="#B7D207" transform="translate(393.25,194.9375)"/>
<path d="M0 0 C0.66 0.33 1.32 0.66 2 1 C0.0884066 3.27527705 -1.82895768 5.54522331 -3.75 7.8125 C-4.28882813 8.45509766 -4.82765625 9.09769531 -5.3828125 9.75976562 C-8.07896139 12.93267256 -10.62474689 15.53823282 -14 18 C-14.495 19.010625 -14.99 20.02125 -15.5 21.0625 C-17 24 -17 24 -18.9375 25.375 C-21 26 -21 26 -25 26 C-23.85569823 22.12697862 -22.76679902 18.99736561 -20 16 C-19.34 16 -18.68 16 -18 16 C-17.75636719 15.4225 -17.51273437 14.845 -17.26171875 14.25 C-13.70137246 7.9008995 -6.48623067 3.04455725 0 0 Z " fill="#CEE902" transform="translate(344,199)"/>
<path d="M0 0 C0.66 0.66 1.32 1.32 2 2 C2.99 2 3.98 2 5 2 C5 2.99 5 3.98 5 5 C5.66 5 6.32 5 7 5 C7.33 4.34 7.66 3.68 8 3 C7.86722656 4.03898438 7.73445313 5.07796875 7.59765625 6.1484375 C6.63195686 13.75719945 5.69780109 21.36091435 5 29 C4.67 29 4.34 29 4 29 C4 26.69 4 24.38 4 22 C3.34 22 2.68 22 2 22 C1.67 22.99 1.34 23.98 1 25 C-0.98 25.99 -0.98 25.99 -3 27 C-2.01 18.09 -1.02 9.18 0 0 Z " fill="#859503" transform="translate(368,229)"/>
<path d="M0 0 C1.134375 0.020625 2.26875 0.04125 3.4375 0.0625 C4.5 1.9375 4.5 1.9375 5.4375 4.0625 C5.1075 4.7225 4.7775 5.3825 4.4375 6.0625 C7.7938491 10.94037526 7.7938491 10.94037526 11.75 15.3125 C13.4375 17.0625 13.4375 17.0625 13.4375 20.0625 C15.3750006 22.25027466 15.3750006 22.25027466 17.4375 24.0625 C11.64675013 24.0625 9.13534844 20.69160919 5.140625 16.87109375 C0.82457767 12.38664573 -3.54833487 7.39417958 -4.5625 1.0625 C-3.5625 0.0625 -3.5625 0.0625 0 0 Z " fill="#B9CD07" transform="translate(320.5625,282.9375)"/>
<path d="M0 0 C3.86653511 3.37348701 5.85677444 7.08918575 8.0625 11.625 C8.41248047 12.34067139 8.76246094 13.05634277 9.12304688 13.79370117 C13.28617451 22.47766396 16.70378747 31.18744624 15 41 C12.75 44.1875 12.75 44.1875 10 46 C8.68 46 7.36 46 6 46 C6 45.34 6 44.68 6 44 C6.639375 43.731875 7.27875 43.46375 7.9375 43.1875 C10.33131686 42.11332248 10.33131686 42.11332248 11 39 C11.35162886 33.48889388 10.4311769 29.10392374 8.75 23.9375 C8.54503906 23.25623047 8.34007812 22.57496094 8.12890625 21.87304688 C6.7033335 17.37601283 4.77626038 13.86287048 2 10 C1.30570621 8.6808418 0.62469505 7.35350594 0 6 C0.99 6.33 1.98 6.66 3 7 C2.505 6.401875 2.01 5.80375 1.5 5.1875 C0 3 0 3 0 0 Z " fill="#B1C310" transform="translate(427,213)"/>
<path d="M0 0 C5.90337742 5.00503738 10.8774639 11.53514371 11.875 19.4375 C11.215 20.4275 10.555 21.4175 9.875 22.4375 C9.5346875 21.014375 9.5346875 21.014375 9.1875 19.5625 C8.19371416 16.27991868 8.19371416 16.27991868 5.4375 15.125 C4.1690625 14.7846875 4.1690625 14.7846875 2.875 14.4375 C1.885 14.1075 0.895 13.7775 -0.125 13.4375 C-0.455 14.0975 -0.785 14.7575 -1.125 15.4375 C-1.125 14.7775 -1.125 14.1175 -1.125 13.4375 C-2.775 13.4375 -4.425 13.4375 -6.125 13.4375 C-6.125 12.7775 -6.125 12.1175 -6.125 11.4375 C-5.465 11.4375 -4.805 11.4375 -4.125 11.4375 C-4.125 10.7775 -4.125 10.1175 -4.125 9.4375 C-4.785 9.1075 -5.445 8.7775 -6.125 8.4375 C-4.475 8.4375 -2.825 8.4375 -1.125 8.4375 C-0.795 9.4275 -0.465 10.4175 -0.125 11.4375 C0.865 11.1075 1.855 10.7775 2.875 10.4375 C1.885 8.7875 0.895 7.1375 -0.125 5.4375 C3.75 7.3125 3.75 7.3125 4.875 8.4375 C0.87341198 3.06001828 0.87341198 3.06001828 -5.125 0.4375 C-9.30585382 0.21352569 -13.05740005 0.45141516 -17.125 1.4375 C-17.125 0.7775 -17.125 0.1175 -17.125 -0.5625 C-10.86522606 -3.22290393 -6.0169995 -3.00849975 0 0 Z M3.875 12.4375 C4.875 14.4375 4.875 14.4375 4.875 14.4375 Z " fill="#1C1C1C" transform="translate(234.125,137.5625)"/>
<path d="M0 0 C8.58 0 17.16 0 26 0 C25.67 1.65 25.34 3.3 25 5 C16.42 5 7.84 5 -1 5 C-0.67 3.35 -0.34 1.7 0 0 Z " fill="#798802" transform="translate(325,241)"/>
<path d="M0 0 C9.12210701 2.60820766 16.95202543 9.78144971 23 17 C24.3125 19.625 24.3125 19.625 25 22 C25.37125 22.928125 25.7425 23.85625 26.125 24.8125 C26.41375 25.534375 26.7025 26.25625 27 27 C23.79986804 24.4696631 20.93156233 22.06074745 18.375 18.875 C16.35076572 16.42461113 14.68096625 14.66404801 12 13 C11.34 13 10.68 13 10 13 C9.67 12.01 9.34 11.02 9 10 C5.81530529 7.66455721 2.58620225 5.65517027 -1 4 C-0.67 2.68 -0.34 1.36 0 0 Z " fill="#C4D921" transform="translate(404,195)"/>
<path d="M0 0 C2.31 0.33 4.62 0.66 7 1 C6.67 2.32 6.34 3.64 6 5 C-1.71152724 6.05648755 -9.28665821 6.11624053 -17.0625 6.0625 C-18.30966797 6.05798828 -19.55683594 6.05347656 -20.84179688 6.04882812 C-23.89458221 6.03713163 -26.94726498 6.02074086 -30 6 C-30 6.66 -30 7.32 -30 8 C-32.475 7.01 -32.475 7.01 -35 6 C-35 5.01 -35 4.02 -35 3 C-32.77090129 2.97285265 -30.54170633 2.95353746 -28.3125 2.9375 C-27.07113281 2.92589844 -25.82976562 2.91429687 -24.55078125 2.90234375 C-21 3 -21 3 -18.38671875 3.52734375 C-15.61335317 4.07656999 -13.30750287 3.91679103 -10.5 3.625 C-9.12328125 3.48964844 -9.12328125 3.48964844 -7.71875 3.3515625 C-5.112274 3.01451819 -2.56932444 2.54923964 0 2 C0 1.34 0 0.68 0 0 Z " fill="#707B03" transform="translate(385,311)"/>
<path d="M0 0 C1.84863281 0.80444336 1.84863281 0.80444336 3.09863281 3.36694336 C3.34613281 4.17131836 3.59363281 4.97569336 3.84863281 5.80444336 C3.08550781 5.94881836 2.32238281 6.09319336 1.53613281 6.24194336 C-1.23309627 6.76770276 -1.23309627 6.76770276 -4.15136719 7.80444336 C-4.15136719 8.46444336 -4.15136719 9.12444336 -4.15136719 9.80444336 C-5.61230469 11.09350586 -5.61230469 11.09350586 -7.52636719 12.42944336 C-8.15285156 12.87545898 -8.77933594 13.32147461 -9.42480469 13.78100586 C-11.15136719 14.80444336 -11.15136719 14.80444336 -13.15136719 14.80444336 C-13.15136719 13.81444336 -13.15136719 12.82444336 -13.15136719 11.80444336 C-14.47136719 11.47444336 -15.79136719 11.14444336 -17.15136719 10.80444336 C-14.74565911 8.93433446 -12.32862564 7.08369862 -9.90136719 5.24194336 C-8.87849609 4.44240234 -8.87849609 4.44240234 -7.83496094 3.62670898 C-7.17109375 3.12719727 -6.50722656 2.62768555 -5.82324219 2.11303711 C-5.21577148 1.64696045 -4.60830078 1.18088379 -3.98242188 0.70068359 C-2.15136719 -0.19555664 -2.15136719 -0.19555664 0 0 Z " fill="#BABE97" transform="translate(436.1513671875,258.195556640625)"/>
<path d="M0 0 C-2.04752425 2.21978626 -3.89107054 3.61546137 -6.6171875 4.90234375 C-7.30683594 5.23556641 -7.99648438 5.56878906 -8.70703125 5.91210938 C-10.14444965 6.59196943 -11.58194877 7.27165884 -13.01953125 7.95117188 C-17.12888472 9.93697676 -20.43555208 12.11325333 -24 15 C-26.3125 14.75 -26.3125 14.75 -28 14 C-27.34 14 -26.68 14 -26 14 C-25.92845703 12.87658203 -25.92845703 12.87658203 -25.85546875 11.73046875 C-24.65544523 7.9002567 -22.78192124 7.21150671 -19.3125 5.3125 C-18.27738281 4.73113281 -17.24226563 4.14976562 -16.17578125 3.55078125 C-10.57836083 0.81747755 -6.24543404 -0.24981736 0 0 Z " fill="#F1F5C3" transform="translate(387,194)"/>
<path d="M0 0 C0.99 0.33 1.98 0.66 3 1 C3.15551096 10.44173689 -0.81615603 17.80709406 -5 26 C-5.66 26 -6.32 26 -7 26 C-7.226875 26.78375 -7.45375 27.5675 -7.6875 28.375 C-9 31 -9 31 -11.625 32.3125 C-12.40875 32.539375 -13.1925 32.76625 -14 33 C-12.35 30.03 -10.7 27.06 -9 24 C-8.34 24 -7.68 24 -7 24 C-5.596419 19.8270215 -4.24308342 15.64217361 -2.9375 11.4375 C-2.59589844 10.34308594 -2.25429688 9.24867188 -1.90234375 8.12109375 C-1.12141295 5.41995217 -0.49941537 2.76480465 0 0 Z " fill="#A5BA09" transform="translate(438,264)"/>
<path d="M0 0 C4.29 0 8.58 0 13 0 C13 0.66 13 1.32 13 2 C11.35 2 9.7 2 8 2 C8 13.88 8 25.76 8 38 C7.01 38.495 7.01 38.495 6 39 C5.67 27.12 5.34 15.24 5 3 C2.03 2.505 2.03 2.505 -1 2 C-0.67 1.34 -0.34 0.68 0 0 Z " fill="#0F0F0F" transform="translate(163,182)"/>
<path d="M0 0 C2 0.75 2 0.75 4 3.75 C4.66 4.41 5.32 5.07 6 5.75 C6.4140625 7.88671875 6.4140625 7.88671875 6.625 10.4375 C6.73521484 11.76974609 6.73521484 11.76974609 6.84765625 13.12890625 C7.03485126 16.34962046 7.07010739 19.52505997 7 22.75 C5.68 22.75 4.36 22.75 3 22.75 C3.20625 21.739375 3.4125 20.72875 3.625 19.6875 C4.02838206 15.45198842 3.33271305 12.74813914 2 8.75 C2 8.09 2 7.43 2 6.75 C-0.31 7.08 -2.62 7.41 -5 7.75 C-5 7.09 -5 6.43 -5 5.75 C-4.34 5.75 -3.68 5.75 -3 5.75 C-3.33 4.1 -3.66 2.45 -4 0.75 C-2 -0.25 -2 -0.25 0 0 Z " fill="#2F2F2F" transform="translate(241,153.25)"/>
<path d="M0 0 C0.33 0.66 0.66 1.32 1 2 C-2.75 3.125 -2.75 3.125 -5 2 C-5.33 2.66 -5.66 3.32 -6 4 C-6.99 4.33 -7.98 4.66 -9 5 C-9.33 5.99 -9.66 6.98 -10 8 C-8.68 8.33 -7.36 8.66 -6 9 C-6.99 9.495 -6.99 9.495 -8 10 C-8 10.66 -8 11.32 -8 12 C-6.02 12 -4.04 12 -2 12 C-2 12.66 -2 13.32 -2 14 C-9.28057554 14.16546763 -9.28057554 14.16546763 -12 13 C-13.75172992 10.66436011 -14.03128302 9.41710698 -13.8125 6.5 C-12.92597842 3.77224128 -11.94812401 2.09797971 -10 0 C-6.26840331 -1.24386556 -3.81984796 -0.77811718 0 0 Z " fill="#373837" transform="translate(265,165)"/>
<path d="M0 0 C1.32 0.66 2.64 1.32 4 2 C3.54149658 2.34256836 3.08299316 2.68513672 2.6105957 3.03808594 C0.510584 4.60786124 -1.58846416 6.17892009 -3.6875 7.75 C-4.7693457 8.55824219 -4.7693457 8.55824219 -5.87304688 9.3828125 C-6.57880859 9.91132813 -7.28457031 10.43984375 -8.01171875 10.984375 C-9.04462036 11.7573291 -9.04462036 11.7573291 -10.09838867 12.54589844 C-11.71297137 13.78051836 -13.28372604 15.07212284 -14.84375 16.375 C-17.42789107 18.32246863 -18.83743716 18.36143575 -22 18 C-20.68 17.67 -19.36 17.34 -18 17 C-17.92265625 16.25363281 -17.8453125 15.50726563 -17.765625 14.73828125 C-16.80875769 11.31601602 -15.55224798 10.31702289 -12.75 8.1875 C-11.98171875 7.58292969 -11.2134375 6.97835937 -10.421875 6.35546875 C-7.6929339 4.82814204 -6.07668297 4.72178931 -3 5 C-2.690625 4.360625 -2.38125 3.72125 -2.0625 3.0625 C-1 1 -1 1 0 0 Z " fill="#A3B70E" transform="translate(350,207)"/>
<path d="M0 0 C3.1875 -0.25 3.1875 -0.25 6 0 C4.32909835 2.55032358 3.12851705 3.92790507 0.4375 5.4375 C-2.47597454 7.30511189 -3.03159575 8.74264026 -4 12 C-4.66 11.67 -5.32 11.34 -6 11 C-5.67 10.34 -5.34 9.68 -5 9 C-6.65 9.33 -8.3 9.66 -10 10 C-9.67 10.99 -9.34 11.98 -9 13 C-10.03125 13.12375 -11.0625 13.2475 -12.125 13.375 C-15.62116846 13.93889814 -18.68397627 14.78682059 -22 16 C-20.25 13.5 -20.25 13.5 -18 11 C-16.68 11 -15.36 11 -14 11 C-14 10.34 -14 9.68 -14 9 C-13.24074219 8.68546875 -12.48148437 8.3709375 -11.69921875 8.046875 C-10.70535156 7.61890625 -9.71148437 7.1909375 -8.6875 6.75 C-7.70136719 6.33234375 -6.71523438 5.9146875 -5.69921875 5.484375 C-2.87827862 3.93306205 -1.85603586 2.54665385 0 0 Z " fill="#A8C103" transform="translate(383,198)"/>
<path d="M0 0 C1.65 0 3.3 0 5 0 C5 8.58 5 17.16 5 26 C4.67 26 4.34 26 4 26 C4 18.08 4 10.16 4 2 C3.01 2 2.02 2 1 2 C1 10.91 1 19.82 1 29 C0.34 28.34 -0.32 27.68 -1 27 C-0.96712417 24.27130593 -0.43602229 21.7033382 0 19 C-0.66 18.67 -1.32 18.34 -2 18 C-1.505 16.515 -1.505 16.515 -1 15 C-0.95530204 12.62542065 -0.96099089 10.24967962 -1 7.875 C-1.03748646 5.58363995 -1.04687851 3.29118714 -1 1 C-0.67 0.67 -0.34 0.34 0 0 Z " fill="#111111" transform="translate(181,182)"/>
<path d="M0 0 C0.66 0 1.32 0 2 0 C2.14695313 0.61746094 2.29390625 1.23492187 2.4453125 1.87109375 C4.01251381 7.78862973 6.17060497 12.25191918 9.79296875 17.1875 C11 19 11 19 11 21 C14.55174138 22.88128767 18.14421446 24.0474011 21.9765625 25.21875 C24 26 24 26 26 28 C23.46369751 28.93504239 22.24602532 29.07794862 19.6328125 28.25 C9.93386438 23.41563334 3.88954157 16.15958631 0.24609375 5.87109375 C-0.21905829 4.26095207 -0.61806926 2.63188589 -1 1 C-0.67 0.67 -0.34 0.34 0 0 Z " fill="#010201" transform="translate(206,159)"/>
<path d="M0 0 C2.475 0.495 2.475 0.495 5 1 C5.33 2.65 5.66 4.3 6 6 C6.33 5.01 6.66 4.02 7 3 C8.9375 1.75 8.9375 1.75 11 1 C11.66 1.33 12.32 1.66 13 2 C13 2.66 13 3.32 13 4 C13.99 4.33 14.98 4.66 16 5 C13.62582907 7.62408366 11.15088121 9.38613402 8 11 C6.68 11 5.36 11 4 11 C4 9.68 4 8.36 4 7 C3.34 7 2.68 7 2 7 C1.34 4.69 0.68 2.38 0 0 Z " fill="#2E2E2E" transform="translate(215,159)"/>
<path d="M0 0 C0 0.66 0 1.32 0 2 C-3.13850064 2.92553743 -5.93680778 3.11664647 -9.203125 3.09765625 C-10.1828125 3.09443359 -11.1625 3.09121094 -12.171875 3.08789062 C-13.18765625 3.07951172 -14.2034375 3.07113281 -15.25 3.0625 C-16.796875 3.05573242 -16.796875 3.05573242 -18.375 3.04882812 C-20.91672573 3.03706088 -23.45833319 3.02062011 -26 3 C-26.33 2.01 -26.66 1.02 -27 0 C-23.06290089 -0.19665429 -19.12531328 -0.38075477 -15.1875 -0.5625 C-14.06794922 -0.61857422 -12.94839844 -0.67464844 -11.79492188 -0.73242188 C-10.72177734 -0.78076172 -9.64863281 -0.82910156 -8.54296875 -0.87890625 C-7.0583313 -0.94960327 -7.0583313 -0.94960327 -5.54370117 -1.02172852 C-3 -1 -3 -1 0 0 Z " fill="#444C03" transform="translate(391,319)"/>
<path d="M0 0 C1.2065625 0.0309375 1.2065625 0.0309375 2.4375 0.0625 C2.7675 0.7225 3.0975 1.3825 3.4375 2.0625 C1.7875 2.0625 0.1375 2.0625 -1.5625 2.0625 C-1.5625 13.9425 -1.5625 25.8225 -1.5625 38.0625 C-1.8925 38.0625 -2.2225 38.0625 -2.5625 38.0625 C-3.78819331 30.42623615 -3.7102613 22.84487309 -3.6875 15.125 C-3.69106656 13.77278552 -3.69497011 12.42057188 -3.69921875 11.06835938 C-3.69728516 9.16473633 -3.69728516 9.16473633 -3.6953125 7.22265625 C-3.69418457 6.06386963 -3.69305664 4.90508301 -3.69189453 3.71118164 C-3.52044548 0.20165187 -3.50912621 0.08558844 0 0 Z " fill="#0F0F0F" transform="translate(120.5625,181.9375)"/>
<path d="M0 0 C2.75026417 -0.05404449 5.49946203 -0.09369306 8.25 -0.125 C9.02730469 -0.14175781 9.80460937 -0.15851563 10.60546875 -0.17578125 C17.72431144 -0.23662606 17.72431144 -0.23662606 21 2 C21 2.99 21 3.98 21 5 C21.66 5.33 22.32 5.66 23 6 C20.6875 6.6875 20.6875 6.6875 18 7 C17.57332031 6.51273438 17.14664062 6.02546875 16.70703125 5.5234375 C14.198071 3.28431966 12.28997912 3.77219468 9 3.9375 C3.31389365 4.20926244 3.31389365 4.20926244 0 2 C0 1.34 0 0.68 0 0 Z " fill="#DAF03D" transform="translate(383,192)"/>
<path d="M0 0 C-0.33 0.66 -0.66 1.32 -1 2 C-5.11230844 2.67414892 -8.83019643 3 -13 3 C-13 3.66 -13 4.32 -13 5 C-14.299375 5.37125 -14.299375 5.37125 -15.625 5.75 C-19.109633 6.88436596 -19.109633 6.88436596 -22.1875 9.1875 C-23.115625 9.785625 -24.04375 10.38375 -25 11 C-25.99 10.67 -26.98 10.34 -28 10 C-19.98936189 1.09929098 -11.34266401 -0.50287673 0 0 Z " fill="#BBD503" transform="translate(381,193)"/>
<path d="M0 0 C-0.66 0 -1.32 0 -2 0 C-2 0.66 -2 1.32 -2 2 C-2.804375 1.67 -3.60875 1.34 -4.4375 1 C-11.44659119 -0.96746419 -17.75065818 -0.06143204 -24.73828125 1.66015625 C-27.15401867 2.0231427 -28.69744505 1.75346764 -31 1 C-22.2545038 -2.92543149 -8.04632699 -8.04632699 0 0 Z " fill="#E0F834" transform="translate(385,192)"/>
<path d="M0 0 C6.77718277 5.14924331 6.77718277 5.14924331 7.6875 8.625 C7.790625 9.40875 7.89375 10.1925 8 11 C9.95809523 13.29289472 9.95809523 13.29289472 12 15 C7.08269358 15 5.56879095 13.22297284 2.25 10 C1.74339844 9.52304687 1.23679687 9.04609375 0.71484375 8.5546875 C-0.53180766 7.37860126 -1.76704609 6.19043826 -3 5 C-2.01 4.67 -1.02 4.34 0 4 C0 2.68 0 1.36 0 0 Z " fill="#B9CB04" transform="translate(326,292)"/>
<path d="M0 0 C0.66 0.99 1.32 1.98 2 3 C1.34 3 0.68 3 0 3 C0.33 4.65 0.66 6.3 1 8 C-0.65 8.66 -2.3 9.32 -4 10 C-4 9.34 -4 8.68 -4 8 C-3.34 8 -2.68 8 -2 8 C-2.33 7.34 -2.66 6.68 -3 6 C-3.99 6 -4.98 6 -6 6 C-6 6.66 -6 7.32 -6 8 C-6.99 8 -7.98 8 -9 8 C-9 8.66 -9 9.32 -9 10 C-10.32 10 -11.64 10 -13 10 C-12 7 -12 7 -10.0625 5.9375 C-9.381875 5.628125 -8.70125 5.31875 -8 5 C-7.34 4.34 -6.68 3.68 -6 3 C-7.32 3.33 -8.64 3.66 -10 4 C-9.67 3.01 -9.34 2.02 -9 1 C-5.73842267 -0.08719244 -3.41589896 -0.29071481 0 0 Z " fill="#414141" transform="translate(237,151)"/>
<path d="M0 0 C-0.33 0.99 -0.66 1.98 -1 3 C-1.99 3 -2.98 3 -4 3 C-4.33 3.99 -4.66 4.98 -5 6 C-6.65 6.33 -8.3 6.66 -10 7 C-8.63875 7.8353125 -8.63875 7.8353125 -7.25 8.6875 C-4.15546609 10.8893799 -2.20718532 12.94389725 0 16 C-0.66 16.66 -1.32 17.32 -2 18 C-2.70125 17.0925 -3.4025 16.185 -4.125 15.25 C-6.69380408 12.1307379 -9.62892474 10.22184506 -13 8 C-13.33 7.01 -13.66 6.02 -14 5 C-12.68 5 -11.36 5 -10 5 C-9.95875 4.38125 -9.9175 3.7625 -9.875 3.125 C-9 1 -9 1 -6.125 -0.3125 C-3 -1 -3 -1 0 0 Z " fill="#010202" transform="translate(243,184)"/>
<path d="M0 0 C-1.66289062 0.92232422 -1.66289062 0.92232422 -3.359375 1.86328125 C-4.82300189 2.67953471 -6.28653884 3.49594944 -7.75 4.3125 C-8.47960937 4.71662109 -9.20921875 5.12074219 -9.9609375 5.53710938 C-12.89516888 7.17761146 -15.69779414 8.7733456 -18.390625 10.79296875 C-20 12 -20 12 -22 12 C-22.33 11.01 -22.66 10.02 -23 9 C-21.35 9 -19.7 9 -18 9 C-17.9175 8.401875 -17.835 7.80375 -17.75 7.1875 C-16.75971603 4.29917175 -15.65063227 3.47257348 -13 2 C-10.25 1.8125 -10.25 1.8125 -8 2 C-8 1.34 -8 0.68 -8 0 C-4.90645403 -0.99435406 -3.09720845 -0.87840996 0 0 Z " fill="#AEC517" transform="translate(376,196)"/>
<path d="M0 0 C-1.87305328 3.74610657 -6.28238929 5.36204281 -10 7 C-13.5625 7.3125 -13.5625 7.3125 -16 7 C-16 6.34 -16 5.68 -16 5 C-15.34 5 -14.68 5 -14 5 C-14 4.01 -14 3.02 -14 2 C-9.35676153 -1.09549231 -5.35112092 -1.41647318 0 0 Z " fill="#7A8608" transform="translate(410,311)"/>
<path d="M0 0 C-0.66644531 0.02578125 -1.33289063 0.0515625 -2.01953125 0.078125 C-8.46870542 0.47499726 -13.73205323 1.74752244 -19.6875 4.2578125 C-22 5 -22 5 -25 4 C-24.67 3.01 -24.34 2.02 -24 1 C-16.90588821 -1.7984889 -6.68683066 -4.45788711 0 0 Z " fill="#D1EF07" transform="translate(380,193)"/>
<path d="M0 0 C1.93359375 0.375 1.93359375 0.375 4 1 C4.69937532 2.31647119 5.36729133 3.65022151 6 5 C6.99 5.33 7.98 5.66 9 6 C11.1875 7.9375 11.1875 7.9375 13 10 C13 10.66 13 11.32 13 12 C13.99 12.33 14.98 12.66 16 13 C16 13.66 16 14.32 16 15 C16.66 15.33 17.32 15.66 18 16 C12.11576402 15.19296069 8.98399559 12.22496307 5 8 C3.1367072 5.42901426 1.50863239 2.79242054 0 0 Z " fill="#DDE39B" transform="translate(324,283)"/>
<path d="M0 0 C0.89203125 0.00902344 1.7840625 0.01804688 2.703125 0.02734375 C3.37859375 0.03894531 4.0540625 0.05054688 4.75 0.0625 C4.75 0.7225 4.75 1.3825 4.75 2.0625 C3.69039063 2.18367187 2.63078125 2.30484375 1.5390625 2.4296875 C0.15098676 2.59850752 -1.23703119 2.76780308 -2.625 2.9375 C-3.32367188 3.01613281 -4.02234375 3.09476563 -4.7421875 3.17578125 C-8.94072159 3.61470445 -8.94072159 3.61470445 -12.25 6.0625 C-13.095625 6.2275 -13.94125 6.3925 -14.8125 6.5625 C-15.616875 6.7275 -16.42125 6.8925 -17.25 7.0625 C-17.58 7.7225 -17.91 8.3825 -18.25 9.0625 C-19.9 9.0625 -21.55 9.0625 -23.25 9.0625 C-21.69249451 5.94748902 -19.05545492 5.41157692 -15.9375 4 C-14.78636719 3.47277344 -13.63523437 2.94554687 -12.44921875 2.40234375 C-8.04027121 0.55586145 -4.77360842 -0.06281064 0 0 Z " fill="#D0E929" transform="translate(393.25,194.9375)"/>
<path d="M0 0 C4.83901683 1.29827281 9.52832674 3.28181739 13 7 C13 8.32 13 9.64 13 11 C9.04636637 9.83188097 6.20775844 8.56620675 3 6 C1.68163705 5.30419733 0.35208914 4.62775567 -1 4 C-0.67 2.68 -0.34 1.36 0 0 Z " fill="#D1E62D" transform="translate(404,195)"/>
<path d="M0 0 C3.28299909 2.983247 5.25763513 5.92045761 7.25 9.875 C7.77078125 10.88304687 8.2915625 11.89109375 8.828125 12.9296875 C10.07099447 16.18600552 10.22676012 18.5470618 10 22 C6.65864649 20.32932325 5.84530557 16.73316496 4.31640625 13.4453125 C3.08744256 11.16243039 1.93057076 9.69980283 0 8 C0.33 7.34 0.66 6.68 1 6 C1.66 6.33 2.32 6.66 3 7 C2.505 6.401875 2.01 5.80375 1.5 5.1875 C0 3 0 3 0 0 Z " fill="#B8D016" transform="translate(427,213)"/>
<path d="M0 0 C0.66 0.33 1.32 0.66 2 1 C1.09739762 4.97145048 0.34471286 6.70890914 -2.8125 9.375 C-5.95905739 10.9791273 -7.54873532 11.40603114 -11 11 C-11 9 -11 9 -9.609375 7.59765625 C-8.99578125 7.09105469 -8.3821875 6.58445313 -7.75 6.0625 C-6.79673828 5.27166016 -6.79673828 5.27166016 -5.82421875 4.46484375 C-3.91424061 2.93113539 -1.98808134 1.43141857 0 0 Z " fill="#E9E9D0" transform="translate(360,204)"/>
<path d="M0 0 C0.53625 0.226875 1.0725 0.45375 1.625 0.6875 C0.965 2.9975 0.305 5.3075 -0.375 7.6875 C-1.035 7.6875 -1.695 7.6875 -2.375 7.6875 C-2.705 7.0275 -3.035 6.3675 -3.375 5.6875 C-3.82875 6.5125 -4.2825 7.3375 -4.75 8.1875 C-5.28625 9.0125 -5.8225 9.8375 -6.375 10.6875 C-7.035 10.6875 -7.695 10.6875 -8.375 10.6875 C-8.375 8.0475 -8.375 5.4075 -8.375 2.6875 C-2.95961538 -0.38942308 -2.95961538 -0.38942308 0 0 Z " fill="#252525" transform="translate(226.375,144.3125)"/>
<path d="M0 0 C5.94 0 11.88 0 18 0 C17.67 0.99 17.34 1.98 17 3 C11.39 3 5.78 3 0 3 C0 2.01 0 1.02 0 0 Z " fill="#A4B704" transform="translate(322,263)"/>
<path d="M0 0 C0.33 0 0.66 0 1 0 C1 1.65 1 3.3 1 5 C1.66 5 2.32 5 3 5 C3.33 5.99 3.66 6.98 4 8 C3.01 8.33 2.02 8.66 1 9 C1 9.66 1 10.32 1 11 C-1.97 11 -4.94 11 -8 11 C-8.33 9.68 -8.66 8.36 -9 7 C-6.36 7.66 -3.72 8.32 -1 9 C-1 8.34 -1 7.68 -1 7 C-2.98 7 -4.96 7 -7 7 C-7 6.34 -7 5.68 -7 5 C-6.01 4.67 -5.02 4.34 -4 4 C-4 4.66 -4 5.32 -4 6 C-2.68 6 -1.36 6 0 6 C0 4.02 0 2.04 0 0 Z " fill="#121212" transform="translate(264,170)"/>
<path d="M0 0 C0.66 0 1.32 0 2 0 C2 0.66 2 1.32 2 2 C3.41601714 2.48108275 4.83284437 2.95978141 6.25 3.4375 C7.03890625 3.70433594 7.8278125 3.97117187 8.640625 4.24609375 C10.74821988 4.91954708 12.84753973 5.49150595 15 6 C14.67 6.99 14.34 7.98 14 9 C8.4032108 8.62055666 5.02076398 8.26444665 1 4 C0.1875 1.75 0.1875 1.75 0 0 Z " fill="#C6CD96" transform="translate(339,295)"/>
<path d="M0 0 C3 1 3 1 4.38671875 3.6171875 C4.81597656 4.69226563 5.24523437 5.76734375 5.6875 6.875 C6.34298828 8.47988281 6.34298828 8.47988281 7.01171875 10.1171875 C8 13 8 13 8 16 C8.99 16.33 9.98 16.66 11 17 C9.68 17.33 8.36 17.66 7 18 C4.25609141 12.10825719 1.93624298 6.20477864 0 0 Z " fill="#040504" transform="translate(242,202)"/>
<path d="M0 0 C2.24973447 -0.054138 4.49984383 -0.09285491 6.75 -0.125 C8.00296875 -0.14820313 9.2559375 -0.17140625 10.546875 -0.1953125 C13.72820492 -0.01537302 15.36521896 0.31001418 18 2 C17.14535156 2.04898437 16.29070312 2.09796875 15.41015625 2.1484375 C14.30542969 2.22320312 13.20070313 2.29796875 12.0625 2.375 C10.96035156 2.44460938 9.85820312 2.51421875 8.72265625 2.5859375 C7.37494141 2.79089844 7.37494141 2.79089844 6 3 C5.67 3.66 5.34 4.32 5 5 C2.525 4.01 2.525 4.01 0 3 C0 2.01 0 1.02 0 0 Z " fill="#788C0A" transform="translate(350,314)"/>
<path d="M0 0 C10.23 0 20.46 0 31 0 C31 0.33 31 0.66 31 1 C23.08 1 15.16 1 7 1 C7 1.66 7 2.32 7 3 C4.36 2.67 1.72 2.34 -1 2 C-0.67 1.34 -0.34 0.68 0 0 Z " fill="#545E04" transform="translate(357,318)"/>
<path d="M0 0 C0.33 0.99 0.66 1.98 1 3 C-0.32 3.33 -1.64 3.66 -3 4 C-3 4.66 -3 5.32 -3 6 C-3.78375 6.103125 -4.5675 6.20625 -5.375 6.3125 C-8.33045181 6.77595022 -8.33045181 6.77595022 -10 10 C-12.625 10.1875 -12.625 10.1875 -15 10 C-14.34 9.67 -13.68 9.34 -13 9 C-13 8.34 -13 7.68 -13 7 C-8.8337564 2.9353721 -5.65923484 1.24503167 0 0 Z " fill="#ADC402" transform="translate(357,202)"/>
<path d="M0 0 C0.99 0 1.98 0 3 0 C3.77112541 4.72314313 4.09764874 9.21521178 4 14 C2.68 14 1.36 14 0 14 C0.185625 12.865625 0.37125 11.73125 0.5625 10.5625 C0.706875 9.386875 0.85125 8.21125 1 7 C0.67 6.67 0.34 6.34 0 6 C-0.04080783 4.00041636 -0.04254356 1.99954746 0 0 Z " fill="#353535" transform="translate(244,162)"/>
<path d="M0 0 C0 3.54124181 -0.45060442 3.76813738 -2.8125 6.1875 C-6.14347527 9.87283434 -7.51173937 13.28717468 -9 18 C-10.32 17.67 -11.64 17.34 -13 17 C-9.17939726 10.64740017 -5.52156539 4.98287609 0 0 Z " fill="#DCF61E" transform="translate(328,207)"/>
<path d="M0 0 C1.32 0.66 2.64 1.32 4 2 C-0.62 5.3 -5.24 8.6 -10 12 C-10.33 11.01 -10.66 10.02 -11 9 C-10.360625 8.896875 -9.72125 8.79375 -9.0625 8.6875 C-8.0415625 8.3471875 -8.0415625 8.3471875 -7 8 C-6.67 7.01 -6.34 6.02 -6 5 C-5.01 5 -4.02 5 -3 5 C-2.690625 4.360625 -2.38125 3.72125 -2.0625 3.0625 C-1 1 -1 1 0 0 Z " fill="#9CB018" transform="translate(350,207)"/>
<path d="M0 0 C4.29 0 8.58 0 13 0 C13 0.66 13 1.32 13 2 C11.35 2 9.7 2 8 2 C8 4.31 8 6.62 8 9 C7.01 9.495 7.01 9.495 6 10 C5.67 7.69 5.34 5.38 5 3 C2.03 2.505 2.03 2.505 -1 2 C-0.67 1.34 -0.34 0.68 0 0 Z " fill="#161616" transform="translate(163,182)"/>
<path d="M0 0 C0.04254356 1.99954746 0.04080783 4.00041636 0 6 C-1 7 -1 7 -3.06640625 7.09765625 C-3.89011719 7.08605469 -4.71382813 7.07445312 -5.5625 7.0625 C-6.38878906 7.05347656 -7.21507812 7.04445313 -8.06640625 7.03515625 C-8.70449219 7.02355469 -9.34257812 7.01195312 -10 7 C-1.31034483 0 -1.31034483 0 0 0 Z " fill="#889A14" transform="translate(418,278)"/>
<path d="M0 0 C0.66 0.33 1.32 0.66 2 1 C-0.72217901 4.8312149 -2.63620396 6.39228567 -7 8 C-7.99 9.485 -7.99 9.485 -9 11 C-12.125 11.6875 -12.125 11.6875 -15 12 C-10.58990583 7.14889642 -5.41995647 3.651893 0 0 Z " fill="#BED71E" transform="translate(355,213)"/>
<path d="M0 0 C0.66 0.33 1.32 0.66 2 1 C1.34 1.66 0.68 2.32 0 3 C-2.125 2.625 -2.125 2.625 -4 2 C-2.125 0.9375 -2.125 0.9375 0 0 Z M-7 4 C-6.34 4.33 -5.68 4.66 -5 5 C-5.99 6.485 -5.99 6.485 -7 8 C-7.99 7.67 -8.98 7.34 -10 7 C-9.01 6.01 -8.02 5.02 -7 4 Z M-12 8 C-11.34 8.33 -10.68 8.66 -10 9 C-12.31 11.31 -14.62 13.62 -17 16 C-17 13 -17 13 -14.5 10.3125 C-13.675 9.549375 -12.85 8.78625 -12 8 Z " fill="#D9F604" transform="translate(344,199)"/>
<path d="M0 0 C0.66 0.33 1.32 0.66 2 1 C1.67 1.66 1.34 2.32 1 3 C1.66 3 2.32 3 3 3 C3 2.01 3 1.02 3 0 C3.99 0 4.98 0 6 0 C6 0.99 6 1.98 6 3 C5.34 3.66 4.68 4.32 4 5 C4.33 5.66 4.66 6.32 5 7 C4.67 7.99 4.34 8.98 4 10 C3.34 9.67 2.68 9.34 2 9 C1.01 8.67 0.02 8.34 -1 8 C-0.67 5.36 -0.34 2.72 0 0 Z " fill="#2F2F2F" transform="translate(217,152)"/>
<path d="M0 0 C3.63 0 7.26 0 11 0 C11 0.66 11 1.32 11 2 C15.62 1.67 20.24 1.34 25 1 C19.51766885 4.65488743 11.65414894 3.61343166 5.30078125 2.546875 C3.51567969 2.09819597 1.75305571 1.56097783 0 1 C0 0.67 0 0.34 0 0 Z " fill="#A7B62D" transform="translate(346,299)"/>
<path d="M0 0 C0.66 1.32 1.32 2.64 2 4 C2.33 4.33 2.66 4.66 3 5 C3.66 4.34 4.32 3.68 5 3 C5 3.66 5 4.32 5 5 C5.66 5 6.32 5 7 5 C7 7.64 7 10.28 7 13 C6.67 13 6.34 13 6 13 C6 10.69 6 8.38 6 6 C5.34 6 4.68 6 4 6 C3.67 6.99 3.34 7.98 3 9 C1.02 9.99 1.02 9.99 -1 11 C-0.67 7.37 -0.34 3.74 0 0 Z " fill="#778503" transform="translate(366,245)"/>
<path d="M0 0 C-0.99 0.495 -0.99 0.495 -2 1 C-2 1.66 -2 2.32 -2 3 C-0.02 3 1.96 3 4 3 C4 3.66 4 4.32 4 5 C0.4780279 5.08004482 -2.61981469 5.04005702 -6 4 C-6 2.68 -6 1.36 -6 0 C-3 -1 -3 -1 0 0 Z " fill="#2E2E2E" transform="translate(259,174)"/>
<path d="M0 0 C0.99 0.33 1.98 0.66 3 1 C3.0825 1.7425 3.165 2.485 3.25 3.25 C4.1396946 6.51221354 5.48503749 7.80954878 8 10 C2.69520066 10 1.81017373 8.4637943 -2 5 C-1.34 4.67 -0.68 4.34 0 4 C0.66 4.33 1.32 4.66 2 5 C1.34 3.35 0.68 1.7 0 0 Z " fill="#AAC105" transform="translate(330,297)"/>
<path d="M0 0 C1.61648438 0.04060547 1.61648438 0.04060547 3.265625 0.08203125 C4.08546875 0.11683594 4.9053125 0.15164062 5.75 0.1875 C5.42 0.8475 5.09 1.5075 4.75 2.1875 C-0.29942445 3.05809042 -5.1364195 3.29403293 -10.25 3.1875 C-6.86416198 0.05642164 -4.53890538 -0.14800778 0 0 Z " fill="#C3DE0D" transform="translate(375.25,192.8125)"/>
<path d="M0 0 C0.85980469 0.17144531 1.71960938 0.34289062 2.60546875 0.51953125 C4.8125 1.1875 4.8125 1.1875 6.8125 3.1875 C6.1525 3.1875 5.4925 3.1875 4.8125 3.1875 C4.8125 3.8475 4.8125 4.5075 4.8125 5.1875 C-1.0625 3.3125 -1.0625 3.3125 -2.1875 2.1875 C-3.53497084 1.95674918 -4.89127565 1.77596937 -6.25 1.625 C-7.549375 1.480625 -8.84875 1.33625 -10.1875 1.1875 C-10.1875 0.8575 -10.1875 0.5275 -10.1875 0.1875 C-6.47254717 -0.75290996 -3.7438856 -0.78729213 0 0 Z " fill="#DCF32A" transform="translate(378.1875,188.8125)"/>
<path d="M0 0 C1.98 0 3.96 0 6 0 C6 1.32 6 2.64 6 4 C3.29120665 5.35439668 0.99066732 5.06501451 -2 5 C-2 4.34 -2 3.68 -2 3 C-1.34 3 -0.68 3 0 3 C0 2.01 0 1.02 0 0 Z " fill="#6D7810" transform="translate(396,313)"/>
<path d="M0 0 C-0.33 1.98 -0.66 3.96 -1 6 C-1.66 6 -2.32 6 -3 6 C-3 5.01 -3 4.02 -3 3 C-4.32 3.33 -5.64 3.66 -7 4 C-7.33 2.68 -7.66 1.36 -8 0 C-4.71303767 -0.79953138 -3.28976808 -1.09658936 0 0 Z " fill="#8FA005" transform="translate(376,228)"/>
<path d="M0 0 C3.63 0 7.26 0 11 0 C10.01 1.485 10.01 1.485 9 3 C6.8359375 3.29296875 6.8359375 3.29296875 4.375 3.1875 C3.55773437 3.16042969 2.74046875 3.13335937 1.8984375 3.10546875 C1.27195312 3.07066406 0.64546875 3.03585938 0 3 C0 2.01 0 1.02 0 0 Z " fill="#ADC503" transform="translate(325,242)"/>
<path d="M0 0 C1.65 0 3.3 0 5 0 C5.33 0.99 5.66 1.98 6 3 C6.99 3.33 7.98 3.66 9 4 C8.01 4.33 7.02 4.66 6 5 C5.67 5.66 5.34 6.32 5 7 C5 6.34 5 5.68 5 5 C3.35 5 1.7 5 0 5 C0 4.34 0 3.68 0 3 C0.66 3 1.32 3 2 3 C2 2.34 2 1.68 2 1 C1.34 0.67 0.68 0.34 0 0 Z " fill="#282828" transform="translate(228,146)"/>
<path d="M0 0 C0.99 0.495 0.99 0.495 2 1 C2 3.64 2 6.28 2 9 C3.32 9.33 4.64 9.66 6 10 C6 10.33 6 10.66 6 11 C4.02 11 2.04 11 0 11 C0 7.37 0 3.74 0 0 Z " fill="#161616" transform="translate(102,207)"/>
<path d="M0 0 C2.38672669 2.96283313 4.7353371 5.94270509 7 9 C6.67 9.66 6.34 10.32 6 11 C1.125 8.25 1.125 8.25 0 6 C-0.039992 4.00039988 -0.04346799 1.99952758 0 0 Z " fill="#CCDC0F" transform="translate(318,284)"/>
<path d="M0 0 C0.66 0 1.32 0 2 0 C1.50769231 5.53846154 1.50769231 5.53846154 -1.0625 7.875 C-2.0215625 8.431875 -2.0215625 8.431875 -3 9 C-3.66 8.67 -4.32 8.34 -5 8 C-4.21718695 6.66144944 -3.42348123 5.32926356 -2.625 4 C-2.18414062 3.2575 -1.74328125 2.515 -1.2890625 1.75 C-0.86367188 1.1725 -0.43828125 0.595 0 0 Z " fill="#A0B307" transform="translate(429,288)"/>
<path d="M0 0 C-1.45449401 1.0055761 -2.91372443 2.00430435 -4.375 3 C-5.59316406 3.8353125 -5.59316406 3.8353125 -6.8359375 4.6875 C-9 6 -9 6 -11 6 C-11.33 5.01 -11.66 4.02 -12 3 C-10.35 3 -8.7 3 -7 3 C-7 2.01 -7 1.02 -7 0 C-2.25 -1.125 -2.25 -1.125 0 0 Z " fill="#A1B520" transform="translate(365,202)"/>
<path d="M0 0 C0.66 0 1.32 0 2 0 C2 0.99 2 1.98 2 3 C-1.33303391 5.49977543 -2.73303602 6 -7 6 C-7 5.01 -7 4.02 -7 3 C-3.535 2.505 -3.535 2.505 0 2 C0 1.34 0 0.68 0 0 Z " fill="#151615" transform="translate(226,164)"/>
<path d="M0 0 C0.99 0.33 1.98 0.66 3 1 C3.25 7.625 3.25 7.625 1 11 C-0.28317892 7.15046324 -0.06643637 4.05261865 0 0 Z " fill="#020202" transform="translate(210,150)"/>
<path d="M0 0 C1.08667969 0.02707031 2.17335938 0.05414063 3.29296875 0.08203125 C4.54013672 0.13423828 4.54013672 0.13423828 5.8125 0.1875 C5.8125 0.5175 5.8125 0.8475 5.8125 1.1875 C2.5125 1.1875 -0.7875 1.1875 -4.1875 1.1875 C-4.1875 1.8475 -4.1875 2.5075 -4.1875 3.1875 C-3.1975 3.5175 -2.2075 3.8475 -1.1875 4.1875 C-3.8275 3.8575 -6.4675 3.5275 -9.1875 3.1875 C-6.54246503 -0.34849411 -4.24021315 -0.13678107 0 0 Z " fill="#BCC38E" transform="translate(360.1875,301.8125)"/>
<path d="M0 0 C2.31 0 4.62 0 7 0 C7 0.66 7 1.32 7 2 C3.91190305 3.76462683 2.76687864 4 -1 4 C-0.67 2.68 -0.34 1.36 0 0 Z " fill="#F9FAD3" transform="translate(372,197)"/>
<path d="M0 0 C7.42857143 -0.28571429 7.42857143 -0.28571429 11 2 C5.04296875 3.7578125 5.04296875 3.7578125 3 4 C2.01 3.34 1.02 2.68 0 2 C0 1.34 0 0.68 0 0 Z " fill="#EBF873" transform="translate(383,192)"/>
<path d="M0 0 C-1.07107117 0.86949317 -2.15745944 1.72014205 -3.25 2.5625 C-3.85328125 3.03816406 -4.4565625 3.51382812 -5.078125 4.00390625 C-7 5 -7 5 -9.234375 4.65234375 C-9.81703125 4.43707031 -10.3996875 4.22179687 -11 4 C-3.77464789 -1.88732394 -3.77464789 -1.88732394 0 0 Z " fill="#879308" transform="translate(418,306)"/>
<path d="M0 0 C3.37503669 1.1858237 5.64722731 2.27573689 8 5 C5.75 5.25 5.75 5.25 3 5 C0.6875 3 0.6875 3 -1 1 C-0.67 0.67 -0.34 0.34 0 0 Z " fill="#9BAA0B" transform="translate(339,308)"/>
<path d="M0 0 C2.97 0 5.94 0 9 0 C8.01 1.485 8.01 1.485 7 3 C4.69 2.67 2.38 2.34 0 2 C0 1.34 0 0.68 0 0 Z " fill="#C0C4A4" transform="translate(356,303)"/>
<path d="M0 0 C1.32 0.33 2.64 0.66 4 1 C2.35 2.65 0.7 4.3 -1 6 C-1.33 5.01 -1.66 4.02 -2 3 C-1.34 2.01 -0.68 1.02 0 0 Z " fill="#A0B209" transform="translate(429,257)"/>
<path d="M0 0 C1.32 0 2.64 0 4 0 C4 0.99 4 1.98 4 3 C1 5 1 5 -1.1875 4.625 C-1.785625 4.41875 -2.38375 4.2125 -3 4 C-2.34 4 -1.68 4 -1 4 C-0.67 2.68 -0.34 1.36 0 0 Z " fill="#F2F4CF" transform="translate(362,204)"/>
<path d="M0 0 C0.66 0.33 1.32 0.66 2 1 C2.625 3.5625 2.625 3.5625 3 6 C1.68 6.33 0.36 6.66 -1 7 C-1.625 5.1875 -1.625 5.1875 -2 3 C-1.34 2.01 -0.68 1.02 0 0 Z " fill="#414241" transform="translate(253,168)"/>
<path d="M0 0 C0.66 0.33 1.32 0.66 2 1 C0.8125 3.5 0.8125 3.5 -1 6 C-3.6875 6.3125 -3.6875 6.3125 -6 6 C-4 4 -2 2 0 0 Z " fill="#BAC186" transform="translate(417,270)"/>
<path d="M0 0 C2.97 0.495 2.97 0.495 6 1 C5.67 1.99 5.34 2.98 5 4 C4.34 4 3.68 4 3 4 C2.01 4.33 1.02 4.66 0 5 C0 3.35 0 1.7 0 0 Z " fill="#899904" transform="translate(391,240)"/>
<path d="M0 0 C1 3 1 3 0.22265625 4.82421875 C-0.8515625 6.54947917 -1.92578125 8.27473958 -3 10 C-3.66 10 -4.32 10 -5 10 C-3.84414715 6.08788267 -2.64465038 3.1254959 0 0 Z " fill="#D8F308" transform="translate(324,215)"/>
<path d="M0 0 C3.3 0 6.6 0 10 0 C10 0.66 10 1.32 10 2 C7.25 2.6875 7.25 2.6875 4 3 C2.68 2.01 1.36 1.02 0 0 Z " fill="#CDE803" transform="translate(388,195)"/>
<path d="M0 0 C0.99 0 1.98 0 3 0 C3.33 1.98 3.66 3.96 4 6 C2.68 6 1.36 6 0 6 C0 4.02 0 2.04 0 0 Z " fill="#444444" transform="translate(244,162)"/>
<path d="M0 0 C2.475 0.495 2.475 0.495 5 1 C5 2.65 5 4.3 5 6 C4.01 6.33 3.02 6.66 2 7 C1.34 4.69 0.68 2.38 0 0 Z " fill="#151515" transform="translate(215,159)"/>
<path d="M0 0 C0.99 0.495 0.99 0.495 2 1 C2 1.66 2 2.32 2 3 C2.99 3.33 3.98 3.66 5 4 C5 4.66 5 5.32 5 6 C5.66 6.33 6.32 6.66 7 7 C4.625 6.75 4.625 6.75 2 6 C0.54286376 3.84898936 0 2.59713506 0 0 Z " fill="#D0D99E" transform="translate(335,292)"/>
<path d="M0 0 C0.99 0.33 1.98 0.66 3 1 C3 2.65 3 4.3 3 6 C2.01 6.33 1.02 6.66 0 7 C0 4.69 0 2.38 0 0 Z " fill="#ADC114" transform="translate(438,264)"/>
<path d="M0 0 C1.485 0.99 1.485 0.99 3 2 C3.39507893 6.34586828 3.45331002 8.32003497 1 12 C0.67 8.04 0.34 4.08 0 0 Z " fill="#B6C81A" transform="translate(438,240)"/>
<path d="M0 0 C0.66 0.33 1.32 0.66 2 1 C1.67 1.99 1.34 2.98 1 4 C-0.84765625 4.73046875 -0.84765625 4.73046875 -3.0625 5.1875 C-3.79597656 5.34605469 -4.52945312 5.50460938 -5.28515625 5.66796875 C-6.13400391 5.83232422 -6.13400391 5.83232422 -7 6 C-4.83312509 3.72478134 -2.54379491 1.84205838 0 0 Z " fill="#DBDFBC" transform="translate(360,204)"/>
<path d="M0 0 C2.475 0.99 2.475 0.99 5 2 C4.67 2.66 4.34 3.32 4 4 C1.9375 4.625 1.9375 4.625 0 5 C-0.66 4.01 -1.32 3.02 -2 2 C-1.34 1.34 -0.68 0.68 0 0 Z " fill="#313331" transform="translate(255,165)"/>
<path d="M0 0 C4.875 2.625 4.875 2.625 6 6 C3.13275314 5.42655063 2.1385485 5.1385485 0 3 C0 2.01 0 1.02 0 0 Z " fill="#D8DFAE" transform="translate(330,289)"/>
<path d="M0 0 C0.66 0.33 1.32 0.66 2 1 C0.8125 3.5 0.8125 3.5 -1 6 C-3.6875 6.3125 -3.6875 6.3125 -6 6 C-4 4 -2 2 0 0 Z " fill="#B9C17B" transform="translate(432,259)"/>
<path d="M0 0 C1.98 0 3.96 0 6 0 C6 0.99 6 1.98 6 3 C4.02 3 2.04 3 0 3 C0 2.01 0 1.02 0 0 Z " fill="#ADC405" transform="translate(322,263)"/>
<path d="M0 0 C0.33 0 0.66 0 1 0 C0.67 2.31 0.34 4.62 0 7 C-1.32 6.67 -2.64 6.34 -4 6 C-2.69593116 3.98079663 -1.36176581 1.98075027 0 0 Z " fill="#D0E31E" transform="translate(319,218)"/>
<path d="M0 0 C0 0.66 0 1.32 0 2 C-0.66 2 -1.32 2 -2 2 C-2.33 3.32 -2.66 4.64 -3 6 C-4.32 5.67 -5.64 5.34 -7 5 C-2.25 0 -2.25 0 0 0 Z " fill="#E4E7C6" transform="translate(344,218)"/>
<path d="M0 0 C1.32 0.33 2.64 0.66 4 1 C1.36 2.65 -1.28 4.3 -4 6 C-4 5.01 -4 4.02 -4 3 C-3.01 3 -2.02 3 -1 3 C-0.67 2.01 -0.34 1.02 0 0 Z " fill="#E9F1A6" transform="translate(357,209)"/>
<path d="M0 0 C3.125 -0.1875 3.125 -0.1875 6 0 C5.01 1.485 5.01 1.485 4 3 C0.875 3.1875 0.875 3.1875 -2 3 C-1.34 2.01 -0.68 1.02 0 0 Z " fill="#BEDB01" transform="translate(383,198)"/>
<path d="M0 0 C2.97 0.33 5.94 0.66 9 1 C6 3 6 3 3.375 2.75 C2.59125 2.5025 1.8075 2.255 1 2 C0.67 1.34 0.34 0.68 0 0 Z " fill="#596408" transform="translate(389,317)"/>
<path d="M0 0 C0.99 0.33 1.98 0.66 3 1 C2.34 2.32 1.68 3.64 1 5 C-0.32 5 -1.64 5 -3 5 C-1.125 1.125 -1.125 1.125 0 0 Z " fill="#AFC805" transform="translate(349,219)"/>
<path d="M0 0 C0.66 0.33 1.32 0.66 2 1 C1.67 2.32 1.34 3.64 1 5 C-0.98 5 -2.96 5 -5 5 C-3.35 3.35 -1.7 1.7 0 0 Z " fill="#C7E026" transform="translate(368,204)"/>
<path d="M0 0 C0 0.99 0 1.98 0 3 C-1.98 3.66 -3.96 4.32 -6 5 C-6.33 4.34 -6.66 3.68 -7 3 C-3.375 0 -3.375 0 0 0 Z " fill="#AEC705" transform="translate(366,198)"/>
<path d="M0 0 C4.455 0.99 4.455 0.99 9 2 C9 2.33 9 2.66 9 3 C6.03 3 3.06 3 0 3 C0 2.01 0 1.02 0 0 Z " fill="#060706" transform="translate(229,180)"/>
<path d="M0 0 C0.66 0 1.32 0 2 0 C2 1.98 2 3.96 2 6 C1.01 6.495 1.01 6.495 0 7 C-0.38133299 5.0085944 -0.71325582 3.00720923 -1 1 C-0.67 0.67 -0.34 0.34 0 0 Z " fill="#2E2F2E" transform="translate(267,170)"/>
</svg>
